<?xml version="1.0" encoding="UTF-8"?>
<svg version="1.1" viewBox="0 0 1600 1112" width="1280" height="1280" xmlns="http://www.w3.org/2000/svg">
<path transform="translate(0)" d="m0 0h1600v1112h-1600v-1112z" fill="#FDFEFF"/>
<path transform="translate(929 290)" d="m0 0c0.79 0.29 1.58 0.58 2.4 0.89 15.2 5.6 30.1 11.6 44.9 18 9.5 4.11 9.5 4.11 19.1 8.01 4.14 1.64 8.09 3.5 12 5.55 4.41 2.25 8.83 4.46 13.3 6.55 1.22 0.56 1.22 0.56 2.46 1.14 1.53 0.71 3.07 1.42 4.61 2.12 6.68 3.11 13 6.77 19.4 10.5 2.76 1.6 5.55 3.18 8.33 4.76 24.7 14.2 49.2 29.4 71.4 47.3 0.7 0.56 1.4 1.12 2.12 1.7 8.51 6.86 16.8 13.9 24.9 21.3 0.76 0.67 1.52 1.33 2.3 2.02 10.6 9.29 20.8 19.1 29.5 30.2 2.1 2.66 4.27 5.26 6.45 7.87 4.61 5.63 8.73 11.5 12.7 17.6 0.69 1.05 1.39 2.11 2.11 3.19 19.9 30.4 33.6 65.3 34.2 102 0.02 1.24 0.02 1.24 0.04 2.5 0.31 25.2-0.81 49.3-11.3 72.6-0.3 0.69-0.6 1.38-0.9 2.1-4.37 10.1-9.42 19.1-16.1 27.9-0.95 1.27-0.95 1.27-1.93 2.57-17 22-38 38.8-63.2 50.6-1.92 0.91-3.82 1.89-5.71 2.87-4.34 2.18-8.79 3.85-13.4 5.44-0.86 0.3-1.73 0.6-2.62 0.91-12.3 4.16-24.8 7.21-37.6 9.4-0.67 0.12-1.34 0.23-2.04 0.35-11.8 1.88-23.8 2.11-35.7 2.09-1.09 0-1.09 0-2.2-0.01-43.6-0.12-84-12.5-122-33.2-37.6-20.4-77.2-22.5-118-10.7-8.36 2.52-16.6 5.35-24.9 8.15-69.4 23.4-142 39.7-215 39.8h-3.27c-18.3-0.01-36.2-0.81-54.3-3.25-1.06-0.14-2.12-0.28-3.2-0.42-54-7.37-109-28.9-148-68.6v-2h-2v-2h-2c-1.42-1.55-2.76-3.17-4.06-4.81-3.56-4.47-3.56-4.47-7.22-8.84-34.8-40.7-46.1-98.5-42.3-150 1.89-20.9 6.6-41.1 13.5-60.9 0.28-0.81 0.55-1.62 0.84-2.45 11.7-34.4 31-68.5 55.9-95.1 1.86-2.01 3.66-4.06 5.44-6.13 4.01-4.59 8.24-8.92 12.5-13.2 0.79-0.79 1.59-1.58 2.4-2.4 5.69-5.63 11.5-10.8 17.8-15.7 1.58-1.29 3.17-2.58 4.75-3.87 63.5-50.4 142-75.9 222-82.1 0.68-0.06 1.37-0.12 2.07-0.18 81.3-6.72 164 8.71 289 48.4z" fill="#552581"/>
<path transform="translate(1089 472)" d="m0 0c17.9 18.1 26.6 42 27.2 67.3-0.42 24.8-9.46 46.2-27.2 63.6-5.07 4.49-11.1 7.46-17.1 10.6l-3 2c27 0.75 48.5-2.2 72-15.9 2.01-1.07 2.01-1.07 4.01-1.07-0.78 6.17-1.62 12.3-2.51 18.5-0.43 3.11-0.85 6.22-1.26 9.34-0.44 3.29-0.93 6.58-1.42 9.87-0.16 1.27-0.32 2.54-0.48 3.85-1.35 8.66-1.35 8.66-4.11 10.9-2.1 0.82-3.99 1.25-6.22 1.55-0.93 0.23-1.85 0.46-2.8 0.7-31.9 5.46-63 1.64-89.9-17.2-3.7-2.74-7.28-5.54-10.7-8.65-3.33-2.32-6.02-2.77-10-3.4-1.43-0.25-2.86-0.49-4.3-0.74-1.44-0.23-2.88-0.47-4.32-0.7-19.9-3.31-36.8-10.5-52-24-0.66-0.58-1.32-1.15-2-1.75-14.5-13.5-22.4-36.2-23.2-55.7-0.52-22.5 5.35-44.8 21.2-61.5 0.81-0.9 1.62-1.8 2.45-2.72 16-17 38.7-27 62.1-28.2 26.7-0.24 53.6 4.11 73.5 23.5z" fill="#FDFEFF"/>
<path transform="translate(427 450)" d="m0 0c1.43-0.01 1.43-0.01 2.88-0.03 1.05 0.01 2.1 0.01 3.18 0.01 1.1-0.01 2.2-0.02 3.34-0.02 3.66-0.02 7.32-0.03 11-0.03 2.54 0 5.08-0.01 7.63-0.02 5.35-0.01 10.7-0.01 16-0.01 6.15 0 12.3-0.02 18.5-0.05 5.94-0.03 11.9-0.04 17.8-0.04 2.52 0 5.04-0.01 7.55-0.03 17.5-0.09 33.7-0.08 47.6 12.2 9.58 10.1 12.6 21.5 12.3 35-0.5 11-4.6 19.4-12.3 27.2-4.62 4-4.62 4-7 4 1.86 1.93 3.73 3.77 5.8 5.47 9.73 7.99 16.1 17.9 17.5 30.6 0.09 0.74 0.17 1.48 0.25 2.24 1.28 13.5-1.45 25.8-9.81 36.4-7.27 8.41-16.6 15.4-27.8 17.2-1.71 0.08-3.43 0.12-5.15 0.12-1.01 0.01-2.03 0.01-3.08 0.01h-3.34-3.54c-3.86 0.01-7.73 0-11.6 0h-8.04-16.8c-6.5-0.01-13-0.01-19.5 0h-16.7-10c-3.71 0.01-7.42 0-11.1 0h-3.36c-1.51 0-1.51 0-3.05-0.01h-2.66c-1.98-0.12-1.98-0.12-2.98-1.12-0.1-2.15-0.13-4.3-0.13-6.45 0-0.68-0.01-1.36-0.01-2.06-0.01-2.3 0-4.6 0-6.9-0.01-1.65-0.01-3.29-0.01-4.93-0.01-4.47-0.02-8.95-0.02-13.4v-11.2c-0.01-8.8-0.01-17.6-0.01-26.4 0-9.08-0.01-18.2-0.03-27.2-0.01-7.78-0.02-15.6-0.02-23.4 0-4.65 0-9.31-0.01-14-0.01-4.38-0.01-8.76 0-13.1 0-1.61 0-3.22-0.01-4.83-0.01-2.19 0-4.38 0-6.57v-3.72c0.42-4.8 2.46-5.1 6.77-5.12z" fill="#FDFEFF"/>
<path transform="translate(718 466)" d="m0 0c19.6 17.2 28.2 39.3 31.8 64.5v18l-109 1c-1.67 5.01 1 9.31 3 14 5.09 9.61 14.7 16.5 24.9 19.8 27.2 6.18 52.6-2.66 76.1-15.8 1 1 1 1 1.12 4.6 0 1.61-0.01 3.21-0.02 4.81v2.55c-0.01 2.7-0.02 5.4-0.03 8.11-0.01 1.82-0.01 3.65-0.02 5.47-0.01 4.49-0.03 8.98-0.05 13.5-32.3 16.5-68.9 25.2-105 13.8-20.5-7.33-36.6-20.2-46.4-39.8-11-24.2-11.3-50.1-2.57-75 8.09-21.4 22.5-39.3 43.6-49 27.5-11.4 58.4-9.39 82.2 9.53z" fill="#FDFEFF"/>
<path transform="translate(899 461)" d="m0 0c1.75 1.4 3.22 2.83 4.71 4.5 0.65 0.71 1.3 1.43 1.97 2.17 11.4 13.4 15.5 28.1 15.4 45.4v3.58c0 3.86-0.02 7.72-0.05 11.6 0 2.7-0.01 5.39-0.01 8.09-0.01 6.33-0.03 12.7-0.06 19-0.04 7.23-0.05 14.4-0.07 21.7-0.03 14.8-0.08 29.7-0.15 44.5-6.82-0.12-13.6-0.25-20.4-0.38-2.32-0.04-4.64-0.08-6.97-0.12-3.32-0.06-6.65-0.12-9.98-0.19-1.05-0.01-2.09-0.03-3.17-0.05-0.96-0.02-1.92-0.04-2.91-0.06-0.85-0.01-1.7-0.03-2.58-0.05-1.94-0.15-1.94-0.15-2.94-1.15-0.11-3.17-0.15-6.32-0.16-9.49 0-1-0.01-1.99-0.01-3.02-0.01-2.17-0.02-4.35-0.03-6.52-0.01-3.45-0.03-6.9-0.05-10.4-0.06-9.8-0.12-19.6-0.15-29.4-0.02-5.99-0.06-12-0.1-18-0.02-2.28-0.02-4.56-0.03-6.84 0-3.21-0.03-6.41-0.05-9.61 0-0.94 0-1.87 0.01-2.83-0.15-11.8-3.46-23-11.9-31.4-6.25-3.75-11.5-4.08-18.5-2.5-10.7 3.86-21.1 11.5-26 22-2.49 6.82-3.44 13-3.43 20.2-0.01 0.97-0.02 1.93-0.03 2.93-0.03 3.16-0.04 6.32-0.05 9.48-0.02 2.2-0.04 4.41-0.06 6.61-0.04 5.78-0.07 11.6-0.1 17.3-0.03 5.9-0.08 11.8-0.12 17.7-0.09 11.6-0.15 23.1-0.21 34.7-6.96 0.02-13.9 0.04-20.9 0.05-2.37 0.01-4.74 0.01-7.11 0.02-3.4 0.01-6.79 0.02-10.2 0.02-1.07 0.01-2.14 0.01-3.23 0.02h-2.98c-1.3 0-1.3 0-2.63 0.01-1.98-0.12-1.98-0.12-2.98-1.12-0.11-1.69-0.15-3.38-0.16-5.07-0.01-1.1-0.02-2.19-0.03-3.33 0-1.21-0.01-2.43-0.01-3.68-0.01-1.28-0.02-2.55-0.03-3.86-0.03-3.51-0.05-7.02-0.07-10.5-0.02-3.69-0.05-7.39-0.08-11.1-0.04-6.23-0.08-12.5-0.12-18.7-0.06-8.7-0.11-17.4-0.18-26.1-0.04-6.83-0.09-13.7-0.14-20.5 0-0.72-0.01-1.43-0.01-2.17-0.06-8.71-0.11-17.4-0.15-26.1-0.02-3.92-0.06-7.84-0.1-11.8-0.02-2.49-0.04-4.97-0.06-7.46-0.01-1.14-0.03-2.29-0.04-3.47-0.01-1.05-0.02-2.1-0.02-3.17-0.01-0.92-0.02-1.83-0.03-2.78 0.23-2.19 0.23-2.19 2.23-4.19 5.21-1.29 10.4-1.13 15.8-1.1h2.8c2.94 0.01 5.87 0.02 8.81 0.03 1.99 0.01 3.99 0.01 5.98 0.02 4.88 0.01 9.76 0.03 14.6 0.05 1.59 3.17 1.38 6.63 1.56 10.1 0.05 0.76 0.09 1.51 0.13 2.29 0.11 1.86 0.21 3.72 0.31 5.59h2c1.21-1.32 2.37-2.68 3.5-4.07 21.7-24.9 55.7-24.6 81.8-7.43z" fill="#FDFEFF"/>
<path transform="translate(1040 497)" d="m0 0c11.2 9.32 18.3 21.9 19.8 36.5 0.86 13.4-0.79 27.8-9.12 38.8-2.21 2.51-4.48 4.88-6.88 7.2-0.53 0.54-1.05 1.07-1.6 1.63-6.32 5.92-14.2 6.92-22.5 6.65-10.9-1.03-19.9-7.25-26.8-15.5-7.89-11-11.4-24.4-10.1-37.8 2.65-13.8 7.27-25.6 18-35 12.9-8.3 25.7-11.9 39.2-2.49z" fill="#552581"/>
<path transform="translate(473 548)" d="m0 0c0.95-0.01 1.9-0.01 2.87-0.02 1.03 0 2.06 0.01 3.11 0.01h3.2c2.23 0 4.46 0 6.69 0.01 3.41 0.01 6.83-0 10.2-0.01h6.5c1.02 0 2.05 0 3.1-0.01 0.95 0.01 1.91 0.01 2.89 0.02h2.54c3.28 0.37 5.49 1.4 7.74 3.81 2.43 3.46 4.24 6.13 4.55 10.4 0.05 0.68 0.1 1.36 0.15 2.06 0.27 6.32-0.76 11.2-5.04 16.1-4.76 2.8-9.26 2.34-14.7 2.25-1.12 0-2.24 0-3.4-0.01-2.36-0.01-4.72-0.03-7.09-0.05-3.62-0.05-7.25-0.07-10.9-0.08-2.29-0.01-4.59-0.03-6.88-0.04-1.09-0.01-2.18-0.02-3.31-0.03-1-0.01-2.01-0.02-3.04-0.03-0.89-0.01-1.77-0.02-2.69-0.03-2.14-0.15-2.14-0.15-4.14-1.15 0.09-4.38 0.2-8.76 0.32-13.1 0.04-1.49 0.07-2.98 0.1-4.47 0.05-2.14 0.11-4.28 0.17-6.41 0.03-1.29 0.06-2.58 0.09-3.91 0.52-4.95 2.37-5.32 6.89-5.33z" fill="#552581"/>
<path transform="translate(480 489)" d="m0 0c0.77-0 1.54-0.01 2.34-0.01 1.62-0.01 3.25-0.01 4.88-0.01 2.46 0 4.93-0.02 7.39-0.04 18.8-0.07 18.8-0.07 24.5 3.64 3.21 3.95 4.84 7.29 5.07 12.4-0.39 3.66-1.72 5.52-4.23 8.15-5.58 2.99-10.1 3.43-16.4 3.36h-2.68c-1.86 0-3.72-0.01-5.58-0.03-2.83-0.02-5.66-0.02-8.49-0.01-1.81-0.01-3.63-0.01-5.44-0.02h-2.54c-4.99-0.06-9.13-0.71-13.9-2.3-0.05-3.06-0.09-6.13-0.12-9.19-0.02-0.86-0.04-1.73-0.05-2.62-0.07-8.84-0.07-8.84 2.17-12.2 4.28-1.26 8.63-1.16 13-1.17z" fill="#552581"/>
<path transform="translate(685,496)" d="m0 0c4.52 4.15 7.87 9.24 10 15v3h-54c-1-3-1-3 0.04-5.3 5.09-8.25 10.2-14.7 19.6-18 8.89-1.87 17.1-0.15 24.3 5.31z" fill="#552581"/>
</svg>
