<?xml version="1.0" encoding="UTF-8"?>
<svg version="1.1" viewBox="0 0 1600 1600" width="1280" height="1280" xmlns="http://www.w3.org/2000/svg">
<path transform="translate(0)" d="m0 0h1600v1600h-1600v-1600z" fill="#FBFEFE"/>
<path transform="translate(1021,516)" d="m0 0c0.99 0.33 1.98 0.66 3 1 1.01 2.05 1.01 2.05 1.9 4.75 0.33 0.99 0.66 1.99 1.01 3.01 0.34 1.07 0.68 2.14 1.03 3.24 0.35 1.09 0.7 2.17 1.07 3.29 3.63 11.4 7.09 22.9 7.81 34.9 0.08 1.89 0.08 1.89 1.18 3.79 7.41 54.1-10.6 107-43 150-4.87 6.2-10.1 12-15.6 17.7-1.32 1.37-2.62 2.76-3.92 4.14-6.11 6.34-12.8 12-19.9 17.1-1.85 1.36-1.85 1.36-4.22 3.83-4.93 2.03-7.75 0.31-12.5-1.66-1.18-0.52-2.37-1.04-3.59-1.57-1.26-0.53-2.52-1.06-3.78-1.58-2.59-1.07-5.17-2.15-7.75-3.24-5.36-2.26-10.8-4.36-16.2-6.44-1.03-0.39-2.07-0.79-3.13-1.2-32.3-12.4-32.3-12.4-65.4-22.4-2.9-0.79-5.77-1.7-8.63-2.61-6.09-1.91-12.2-3.52-18.4-5.1-4.85-1.25-9.65-2.63-14.4-4.08-3.3-1-6.63-1.92-9.95-2.85-54.8-15.4-54.8-15.4-63.6-29.9-2.03-3.84-3.32-7.12-2.57-11.5 9-25.5 46.1-38.5 68.3-49.5 2.13-1.06 4.27-2.12 6.4-3.19 13.6-6.73 27.2-13.3 41-19.5 29.4-13.3 58.6-27 87.4-41.5 0.93-0.47 0.93-0.47 1.89-0.94 5.37-2.7 10.8-5.4 16.1-8.22 15.3-8.06 31.8-13.6 48.3-18.6 5.55-1.73 11-3.72 16.4-5.71 1.11-0.4 2.23-0.8 3.38-1.22 5.3-1.84 5.3-1.84 10.4-4.09z" fill="#131415"/>
<path transform="translate(986,457)" d="m0 0c3.35 2.13 5.8 4.15 7 8-0.06 1.91-0.06 1.91-1 4-2.13 1.38-4.09 2.44-6.38 3.5-0.69 0.34-1.39 0.67-2.11 1.02-7.79 3.71-15.7 7.15-23.6 10.6-18.3 8.06-36.3 16.6-54.3 25.2-0.94 0.45-1.88 0.9-2.85 1.36-11.5 5.53-22.9 11.3-34.3 17l-12.5 6.27c-3.06 1.53-6.12 3.07-9.17 4.61-15.3 7.7-30.7 15.1-46.3 22.2-3.65 1.66-7.28 3.38-10.9 5.11l-3.78 1.8c-0.62 0.3-1.24 0.59-1.88 0.9-13.7 6.52-27.5 12.8-41.4 18.9-0.83 0.37-1.67 0.74-2.53 1.12-11.5 5.08-23.2 9.89-34.9 14.5-1.95 0.77-3.9 1.55-5.84 2.32-14 5.59-28.1 10.5-42.6 14.7-2.98 0.88-5.95 1.79-8.91 2.7-18.8 5.8-37.6 11.4-56.6 16.3-1.16 0.3-2.32 0.6-3.52 0.92-1.07 0.26-2.15 0.53-3.25 0.81-0.93 0.23-1.86 0.47-2.82 0.71-2.81 0.4-4.87 0.09-7.6-0.63-11.2-47.7-6.6-98.8 18-142 2-2 2-2 4.87-2.21 1.24 0.01 2.48 0.03 3.75 0.05 1.03 0.01 1.03 0.01 2.08 0.01 1.5 0.02 3 0.04 4.5 0.06 2.42 0.04 4.85 0.06 7.27 0.08 3.48 0.02 6.96 0.06 10.4 0.09 35.6 0.32 70.8-0.76 106-3.84l7.59-0.63c8.29-0.67 16.6-1.47 24.8-2.35 2.78-0.3 5.56-0.59 8.33-0.88 27.4-2.85 54.6-6.05 81.7-10.5 6.01-0.98 12-1.92 18-2.86 25.7-4.04 51.4-8.37 77-13 0.68-0.12 1.35-0.24 2.05-0.37 4.48-0.81 8.96-1.63 13.4-2.44 1.14-0.21 2.28-0.42 3.45-0.63 1.56-0.29 1.56-0.29 3.15-0.58 0.91-0.17 1.82-0.33 2.75-0.5 1.53-0.3 3.05-0.64 4.56-1.02 2.77-0.68 5.02-0.75 7.86-0.46z" fill="#131415"/>
<path transform="translate(856 925)" d="m0 0c15.8 12 23.2 30.8 26.4 49.8 3.31 26.7 0.7 55-16.1 76.9-10.5 12.5-24.2 18.4-40.3 20.2-21.7 1.8-40.3-1.1-57.4-15.3-3.25-2.79-3.25-2.79-3.83-5.4-0.18-0.63-0.36-1.26-0.54-1.92-0.62-0.31-1.24-0.62-1.88-0.93-6.54-3.28-9.8-15.4-12.1-22.1-0.42-1.19-0.42-1.19-0.84-2.4-7.88-25.4-4.91-54.7 7.17-78.2 8.77-15.6 21.8-25.1 38.7-30.4 21.2-5.91 42.8-3.16 60.8 9.74z" fill="#FBFEFE"/>
<path transform="translate(514 917)" d="m0 0c8.44 8.9 11.4 20.3 11.2 32.2-0.67 10.4-6.04 17.5-13.5 24.5-6.42 5.5-13.6 8.85-21.8 10.8 0.89 2.38 0.89 2.38 4.17 3.08 1.38 0.39 2.76 0.79 4.14 1.17 21.1 6.32 21.1 6.32 26.7 15.8 4 8.39 5.2 15.4 5.25 24.6 0.02 0.95 0.04 1.89 0.06 2.87 0.06 12-3.27 20.2-11.5 28.8-17.8 17.1-41.6 16.3-64.7 16-2.8-0.03-5.6-0.04-8.4-0.05-3.35-0.01-6.7-0.03-10-0.05-1.25-0.01-2.51-0.01-3.8-0.02-1.15-0.01-2.29-0.03-3.47-0.04-1.02-0.01-2.03-0.02-3.07-0.03-2.28-0.15-2.28-0.15-3.28-1.15-0.1-2.13-0.13-4.27-0.13-6.41 0-0.68 0-1.36-0.01-2.06 0-2.29 0-4.57 0.01-6.86-0.01-1.64-0.01-3.27-0.01-4.91v-13.4-13.9c0-7.8 0-15.6 0.01-23.4 0-9.04 0-18.1-0.01-27.1v-23.2-13.9-13.1c0.01-1.6 0.01-3.2 0-4.81 0-2.18 0-4.35 0.01-6.53v-3.7c0.13-2.72 0.13-2.72 1.13-3.72 1.38-0.12 2.77-0.18 4.16-0.2 0.88-0.02 1.77-0.04 2.68-0.06 0.97-0.02 1.93-0.04 2.93-0.05 0.99-0.02 1.99-0.05 3.01-0.07 3.2-0.06 6.39-0.12 9.59-0.18 2.12-0.04 4.24-0.09 6.36-0.13 2.05-0.04 4.11-0.08 6.16-0.12 0.95-0.02 1.9-0.04 2.87-0.06 40-0.73 40-0.73 53.2 9.4z" fill="#07090B"/>
<path transform="translate(641 907)" d="m0 0c0.84 0.04 1.69 0.08 2.56 0.12 12.3 0.66 23.7 3.69 32.7 12.5 8.27 10.5 9.19 22.7 8.3 35.7-1.18 9.25-7.55 17.3-14.3 23.3-7.33 5.66-15.3 9.01-24 12-0.93 0.32-1.86 0.64-2.83 0.97-2.05 0.69-4.11 1.36-6.17 2.03l1 5h2l1 4h2l2 5h2c0.1 0.63 0.21 1.27 0.31 1.93 0.23 0.68 0.46 1.36 0.69 2.07 1.48 0.49 1.48 0.49 3 1 1.9 2.32 1.9 2.32 3.94 5.25 2.04 2.9 4.05 5.74 6.31 8.48 1.75 2.27 1.75 2.27 1.75 4.27 1.48 0.49 1.48 0.49 3 1 0.7 1.31 1.36 2.65 2 4 0.62 0.61 0.62 0.61 1.25 1.23 2.48 2.5 4.55 5.3 6.69 8.08 4.92 6.34 10.1 12.5 15.3 18.5 0.45 0.52 0.91 1.05 1.37 1.59 0.92 1.06 1.85 2.12 2.79 3.16 2.42 2.78 3.85 4.8 4.57 8.41-4.23 0.14-8.46 0.23-12.7 0.31-1.8 0.06-1.8 0.06-3.63 0.12-8.86 0.13-8.86 0.13-12.7-2.49-0.67-0.97-1.33-1.94-2.02-2.94l-2.76-3.54c-0.98-1.32-1.96-2.64-2.93-3.96-1.07-1.44-2.13-2.88-3.2-4.32-0.53-0.71-1.05-1.42-1.6-2.15-2.91-3.92-5.9-7.77-8.89-11.6-1.92-2.49-3.82-4.99-5.71-7.5-5.67-7.51-11.4-14.8-17.7-21.9-4.02-4.62-7.66-9.45-11.2-14.4-4.87-6.04-6.8-6.5-15-7.52v82h-21c-1-1-1-1-1.12-3.63 0-1.17 0-2.35 0.01-3.57v-1.98c0-2.21 0-4.41 0.01-6.62 0-1.58 0-3.16 0.01-4.73 0-3.41 0.01-6.81 0.01-10.2 0.02-5.39 0.02-10.8 0.03-16.2 0.01-12.4 0.03-24.8 0.05-37.2 0.02-11.4 0.04-22.7 0.05-34.1l0.03-16c0.01-3.33 0.01-6.66 0.01-9.99 0.01-1.55 0.01-3.09 0.01-4.64 0.01-2.11 0.01-4.22 0.01-6.33 0-1.18 0.01-2.36 0.01-3.57-0.12-3.17-0.53-6.14-1.12-9.25 2.36-1.18 3.85-1.17 6.48-1.23 0.94-0.02 1.87-0.04 2.83-0.07 1.53-0.03 1.53-0.03 3.08-0.06 1.06-0.02 2.12-0.04 3.21-0.07 2.25-0.04 4.5-0.09 6.76-0.13 3.37-0.07 6.74-0.15 10.1-0.23 10.4-0.22 20.8-0.3 31.2 0.18z" fill="#07090B"/>
<path transform="translate(607,712)" d="m0 0c5.03 0.57 9.49 1.72 14.2 3.44 8.22 2.85 16.6 5.23 24.9 7.56 16.6 4.63 32.9 9.99 49.2 15.7 8.16 2.85 16.4 5.58 24.6 8.3 1.49 0.5 2.98 0.99 4.48 1.49 3 1 6 1.99 9 2.99 8.61 2.86 17.2 5.73 25.8 8.61 2.24 0.75 4.49 1.49 6.73 2.24 0.71 0.24 1.42 0.47 2.15 0.72 3.85 1.28 7.7 2.56 11.6 3.84 7.66 2.54 15.3 5.11 22.9 7.74 2.15 0.74 4.3 1.49 6.45 2.23 1.48 0.51 2.95 1.02 4.43 1.53 9.14 3.16 18.3 6.22 27.5 9.13 0.92 0.29 1.84 0.59 2.78 0.89 4.49 1.42 8.97 2.84 13.5 4.23 1.63 0.51 3.27 1.03 4.9 1.55 0.75 0.22 1.49 0.45 2.27 0.68 4.02 1.3 6.45 2.36 8.54 6.13-6.22 1.98-12.5 2.99-18.9 4-8.3 1.27-8.3 1.27-16.5 3.12-3.19 0.78-5.7 1.07-8.96 0.94-3.45-0.19-3.45-0.19-6.62 0.94-2.65 0.03-5.26 0-7.91-0.09-0.8-0.02-1.6-0.04-2.43-0.06-1.7-0.05-3.41-0.1-5.11-0.15-2.55-0.07-5.1-0.14-7.65-0.21-8.05-0.22-16.1-0.5-24.2-0.9-1.3-0.07-2.61-0.13-3.95-0.2-4.13-0.42-7.8-1.31-11.8-2.39-2-0.35-4-0.68-6-1-8.17-1.41-16.1-3.61-24-6-0.91-0.26-1.82-0.53-2.75-0.8-23-7.08-44.6-18.6-64.4-32-1.2-0.8-2.41-1.58-3.63-2.35-1.43-0.91-2.81-1.88-4.18-2.86v-2c-0.54-0.25-1.07-0.5-1.62-0.75-7.45-3.92-13.5-9.32-19.4-15.2-0.87-0.86-1.75-1.72-2.65-2.61-5.34-5.29-10.6-10.6-15.4-16.4-0.73-0.87-1.45-1.75-2.2-2.64-5.8-7.09-5.8-7.09-5.8-9.36z" fill="#131415"/>
<path transform="translate(795 377)" d="m0 0c41.1-1.18 79.6 7.14 117 25.1 1.05 0.5 1.05 0.5 2.13 1.02 18.7 8.99 18.7 8.99 23.9 13l1 3c-6.63 0.29-13.2 0.58-19.9 0.87-1.01 0.05-2.02 0.09-3.07 0.14-12.3 0.54-24.5 1.05-36.8 1.53-1.68 0.07-1.68 0.07-3.4 0.13-5.44 0.22-10.9 0.43-16.3 0.63-2 0.08-4.01 0.16-6.01 0.23-0.89 0.04-1.77 0.07-2.68 0.1-4.55 0.18-9.07 0.47-13.6 0.89-6.7 0.58-13.4 0.62-20.1 0.61h-3.87-8.05c-3.42-0.01-6.84 0-10.3 0-3.3 0.01-6.59 0-9.88 0-1.22 0-2.45 0-3.71 0.01-1.14-0.01-2.28-0.01-3.46-0.01h-3.02c-3.03-0.14-5.9-0.6-8.88-1.13-2.76-0.2-5.51-0.37-8.28-0.5-0.82-0.04-1.64-0.08-2.48-0.12-2.73-0.14-5.45-0.26-8.18-0.38-1.41-0.07-1.41-0.07-2.84-0.13-25.7-1.17-51.5-1.52-77.2-1.87v-3c20-11 39.7-21.5 61.6-28.3 1.59-0.49 3.18-0.99 4.76-1.5 15-4.81 30-7.36 45.6-9.22 1.07-0.13 1.07-0.13 2.17-0.26 4.75-0.54 9.49-0.67 14.3-0.82z" fill="#131415"/>
<path transform="translate(814 905)" d="m0 0c1.03 0 1.03 0 2.08 0.01 21.8 0.12 41.9 4.19 59.9 17.3 0.75 0.52 1.51 1.04 2.29 1.58 0.56 0.47 1.13 0.94 1.71 1.42v2c0.6 0.27 1.19 0.54 1.81 0.81 2.19 1.19 3.6 2.29 5.19 4.19v2h2c15.7 26.2 22.5 54.8 15.5 85.2-5.14 20.1-16.8 36.8-34.5 47.8-27.1 15-60.9 16.4-90.2 8.25-8.09-2.43-15.4-6.15-22.8-10.2-0.98-0.53-1.95-1.06-2.95-1.61-0.68-0.46-1.36-0.92-2.05-1.39v-2c-0.68-0.18-1.36-0.37-2.06-0.56-11.9-5.8-18.8-21.5-23-33.3-8.06-25.5-6.9-52.7 4.75-76.9 10.1-19.3 26.2-32.4 46.9-39.5 3.44-1 6.86-1.93 10.4-2.74 0.7-0.17 1.39-0.35 2.11-0.53 7.62-1.77 15.2-1.82 23-1.78zm-49.8 28.9c-8.25 9.63-13.3 21.2-16.3 33.4-0.22 0.87-0.43 1.73-0.65 2.62-5.15 24.4-2.8 52 10.6 73.4 0.39 0.66 0.79 1.32 1.2 2 1.1 1.84 1.1 1.84 2.8 4h2c0.2 0.72 0.4 1.44 0.61 2.19 1.78 3.62 4.33 5.55 7.51 7.88 0.59 0.43 1.18 0.87 1.79 1.33 4.16 3.05 8.22 5.79 13.1 7.6 1.08 0.43 1.08 0.43 2.19 0.86 18.8 6.25 43.1 4.51 61-3.92 14.3-7.51 23.7-22 28.8-36.9 6.99-25.7 7.07-58-5.63-82-1.69-2.76-3.49-5.37-5.4-7.98-0.62-0.87-1.24-1.75-1.88-2.65-9.88-13.2-25-20.6-41.1-23-1.33-0.12-2.67-0.22-4-0.31-0.8-0.05-1.59-0.1-2.41-0.16-20.4-0.69-40.1 7.16-54.3 21.7z" fill="#07090B"/>
<path transform="translate(986,457)" d="m0 0c3.35 2.13 5.8 4.15 7 8-0.06 1.91-0.06 1.91-1 4-2.13 1.38-4.09 2.44-6.38 3.5-0.69 0.34-1.39 0.67-2.11 1.02-7.79 3.71-15.7 7.15-23.6 10.6-18.3 8.06-36.3 16.6-54.3 25.2-0.94 0.45-1.88 0.9-2.85 1.36-7.58 3.65-15.1 7.41-22.6 11.2-3.72 1.87-7.45 3.73-11.2 5.59-1.5 0.75-2.99 1.5-4.49 2.25-6.84 3.41-13.7 6.83-20.5 10.2v-3c0.96-0.48 1.92-0.96 2.91-1.45 3.64-1.81 7.27-3.62 10.9-5.43 1.56-0.78 3.12-1.55 4.68-2.33 4.48-2.23 8.96-4.47 13.4-6.73 1.36-0.69 2.72-1.37 4.07-2.05 1.8-0.91 3.59-1.83 5.38-2.76 1-0.51 2-1.02 3.03-1.54 3.56-2.33 6.04-4.94 7.36-9.02 0.08-0.56 0.16-1.12 0.25-1.69-0.6-0.27-1.2-0.54-1.81-0.81-2.2-1.2-3.44-2.44-5.19-4.19-4.78-3.88-10-4.13-16-4-3.79 0.46-7.54 1.14-11.3 1.8-10.9 1.87-22 2.25-33 2.19-4.62 0.01-9.11 0.47-13.7 1.01-1.28 0.14-2.56 0.29-3.88 0.44-2.78 0.5-4.71 1.11-7.12 2.56l-1-1c-1.96 0.5-3.92 1-5.88 1.52-2.73 0.62-5.32 0.54-8.12 0.48-2.77 0.42-5.12 1.05-7.75 2.04-3.52 1.04-6.15 1.09-9.81 0.96-7.91-0.15-15.7 0.32-23.6 0.88-1.14 0.07-2.28 0.15-3.46 0.23-7.77 0.56-7.77 0.56-15.5 1.41-12.1 1.48-24.1 1.63-36.2 1.57-0.88 0-1.75-0.01-2.66-0.01-8.26-0.04-16.5-0.12-24.8-0.2-4.56-0.04-9.12-0.07-13.7-0.09-1.71-0.01-3.42-0.02-5.13-0.05-13.9-0.18-29.3 0.01-41.8 6.82-0.98 0.52-0.98 0.52-1.99 1.04-9.23 5.12-15 13-19.5 22.4h-2v2h-3c-0.5 0.99-0.5 0.99-1 2-1.47-2.33-2.08-3.5-1.64-6.26 0.29-0.83 0.58-1.65 0.88-2.49 0.32-0.93 0.64-1.86 0.97-2.82 0.55-1.48 0.55-1.48 1.1-2.99 0.37-1.02 0.73-2.03 1.1-3.08 9.12-24.9 9.12-24.9 14.6-30.4 2.87-0.21 2.87-0.21 6.62-0.16 0.68 0 1.37 0.01 2.08 0.01 1.5 0.02 3 0.04 4.5 0.06 2.42 0.04 4.85 0.06 7.27 0.08 3.48 0.02 6.96 0.06 10.4 0.09 35.6 0.32 70.8-0.76 106-3.84l7.59-0.63c8.29-0.67 16.6-1.47 24.8-2.35 2.78-0.3 5.56-0.59 8.33-0.88 27.4-2.85 54.6-6.05 81.7-10.5 6.01-0.98 12-1.92 18-2.86 25.7-4.04 51.4-8.37 77-13 0.68-0.12 1.35-0.24 2.05-0.37 4.48-0.81 8.96-1.63 13.4-2.44 1.14-0.21 2.28-0.42 3.45-0.63 1.56-0.29 1.56-0.29 3.15-0.58 0.91-0.17 1.82-0.33 2.75-0.5 1.53-0.3 3.05-0.64 4.56-1.02 2.77-0.68 5.02-0.75 7.86-0.46z" fill="#07090B"/>
<path transform="translate(955,903)" d="m0 0c4.68 1.48 4.68 1.48 6.31 4.12 0.23 0.62 0.46 1.24 0.69 1.88h2c4.77 4.3 4.77 4.3 6 8h2c1.66 1.61 1.66 1.61 3.5 3.75 0.61 0.7 1.22 1.39 1.84 2.11 1.54 1.98 2.63 3.86 3.66 6.14h2v2h2c1.52 1.5 1.52 1.5 3.25 3.56 0.62 0.73 1.24 1.46 1.88 2.21 0.93 1.11 0.93 1.11 1.87 2.23 4.22 4.99 8.56 9.69 13.3 14.2 1.69 1.81 1.69 1.81 1.69 3.81h2c3 3.46 3 3.46 3 6 0.64 0.27 1.28 0.54 1.94 0.81 2.06 1.19 2.06 1.19 3.06 4.19 1.49 0.5 1.49 0.5 3 1 1.87 2.11 1.87 2.11 3.88 4.75 2.82 3.7 5.77 7 9.12 10.2l5.31 5.19c1.33 1.29 1.33 1.29 2.68 2.6 2.01 2.21 2.01 2.21 2.01 4.21l4 2v2c0.58 0.23 1.15 0.45 1.75 0.69 2.86 1.67 4.32 3.67 6.31 6.31 2.26 2.98 3.81 4.91 6.94 7v2c0.56 0.21 1.11 0.41 1.69 0.62 3.28 1.96 5.02 4.32 7.31 7.38v2h2c1.62 1.38 1.62 1.38 3 3v2h2c1.71 1.63 3.38 3.29 5 5 0.02-15.7 0.04-31.4 0.05-47 0.01-7.28 0.01-14.6 0.03-21.8 0.01-6.34 0.01-12.7 0.01-19 0.01-3.36 0.01-6.72 0.02-10.1v-11.2c0.01-1.11 0.01-2.22 0.01-3.36 0-4.92-0.07-9.6-1.12-14.4 2.76-1.38 5.05-1.1 8.12-1.06 1.1 0.01 2.2 0.02 3.33 0.02 1.26 0.02 1.26 0.02 2.55 0.04 1.43 5.06 0.86 10 0.57 15.2-0.49 9.96-0.68 19.9-0.68 29.9 0 0.71 0 1.42-0.01 2.15 0 4.51 0.01 9.01 0.02 13.5 0 4 0.01 8 0.01 12 0 7.53 0.01 15.1 0.02 22.6 0.01 8.59 0.01 17.2 0.02 25.8 0.01 17.6 0.03 35.3 0.05 52.9-1.29-0.79-2.58-1.58-3.86-2.37-0.72-0.44-1.44-0.88-2.18-1.33-2.29-1.52-3.98-3.17-5.71-5.3-0.57-0.69-1.14-1.37-1.73-2.08-1.21-1.54-2.43-3.07-3.64-4.61-2.79-3.43-5.97-6.42-9.13-9.5-2.28-2.33-4.46-4.69-6.63-7.12-4.83-5.42-9.81-10.7-14.8-16-10.3-10.9-10.3-10.9-10.3-13.7-0.57-0.24-1.14-0.47-1.73-0.72-2.76-1.56-4.44-3.4-6.52-5.78-0.71-0.79-1.41-1.59-2.14-2.41-1.61-2.09-1.61-2.09-1.61-4.09-1.48-0.5-1.48-0.5-3-1-5-5.47-5-5.47-5-8h-2c-1.35-1.65-2.68-3.32-4-5l-3-2v-2h-2c-1.69-1.64-1.69-1.64-3.56-3.81-0.62-0.71-1.24-1.42-1.88-2.15-1.56-2.04-1.56-2.04-2.56-5.04-0.99-0.5-0.99-0.5-2-1-2-1-2-1-3-4h-2c-1.41-1.4-1.41-1.4-3.06-3.38-7.71-9.08-7.71-9.08-16-17.6-1.94-2-1.94-2-1.94-4l-4-2c0 0.55 0 1.1 0.01 1.67 0.02 5.74 0.03 11.5 0.04 17.2l0.03 6.42c0.01 3.08 0.01 6.17 0.02 9.25 0 0.95 0.01 1.91 0.01 2.89v2.73c0.01 0.78 0.01 1.57 0.01 2.38-0.12 2.43-0.12 2.43-0.62 5.23-0.58 3.73-0.63 7.37-0.61 11.1v2.34c0 2.53 0 5.07 0.01 7.6 0 1.76 0.01 3.52 0.01 5.29 0 4.62 0.01 9.25 0.02 13.9 0.01 4.73 0.02 9.46 0.02 14.2 0.01 9.26 0.03 18.5 0.05 27.8-2.96 0.99-4.97 1.13-8.06 1.12-1.32 0.01-1.32 0.01-2.66 0.01-2.28-0.13-2.28-0.13-4.28-1.13 0.04-0.83 0.07-1.66 0.11-2.51 3.7-78.6 3.7-78.6 3.21-157-0.03-0.76-0.06-1.51-0.08-2.29-0.08-1.99-0.16-3.99-0.25-5.98 0.01-2.92 0.01-2.92 1.01-4.92z" fill="#07090B"/>
<path transform="translate(113 908)" d="m0 0c1.6-0.01 1.6-0.01 3.23-0.01 1.75 0.01 1.75 0.01 3.53 0.03h3.73c3.37 0 6.74 0.02 10.1 0.04 3.53 0.02 7.05 0.02 10.6 0.02 6.68 0.01 13.4 0.03 20 0.06 7.6 0.04 15.2 0.05 22.8 0.07 15.6 0.03 31.2 0.08 46.9 0.15l1 3c-1.6 2.5-1.6 2.5-4.07 5.56-0.93 1.18-1.86 2.35-2.79 3.52-0.76 0.95-0.76 0.95-1.53 1.91-8.9 11.1-17.4 22.4-25.3 34.1-2.07 3.03-4.21 6.02-6.35 9.01-0.61 0.85-0.61 0.85-1.24 1.73-1.64 2.28-3.28 4.57-4.92 6.85-6.24 8.68-12.4 17.4-18.4 26.2-1.39 2.03-2.79 4.06-4.18 6.08-5.74 8.32-11.4 16.7-17 25.1-1.24 1.86-2.48 3.71-3.73 5.56-4.46 6.63-8.85 13.3-13.1 20-0.44 0.68-0.88 1.36-1.33 2.06-2.44 3.8-2.44 3.8-3.04 8.19 0.52-0.16 1.05-0.32 1.59-0.48 3-0.65 5.85-0.72 8.92-0.8 0.64-0.02 1.29-0.04 1.96-0.06 2.14-0.05 4.28-0.11 6.43-0.16 1.51-0.04 3.03-0.08 4.55-0.12 4.01-0.11 8.03-0.21 12-0.32 6.32-0.16 12.6-0.33 19-0.5 2.33-0.06 4.65-0.12 6.98-0.18 7.44-0.2 14.9-0.42 22.3-0.7 0.68-0.03 1.37-0.05 2.07-0.08 3.22-0.12 6.44-0.25 9.66-0.38 1.12-0.05 2.23-0.09 3.38-0.13 1.46-0.06 1.46-0.06 2.95-0.13 2.19 0.04 2.19 0.04 3.19 1.04v12h-138c0-4.03 2.01-5.88 4.43-8.87 5.16-6.52 9.88-13.3 14.6-20.1 1.08-1.54 2.16-3.08 3.25-4.62 2.85-4.08 5.66-8.18 8.46-12.3 4.61-6.76 9.25-13.5 14.1-20.1 4.84-6.66 9.52-13.4 14.2-20.2 2.05-2.93 4.1-5.87 6.15-8.8 9.19-13.2 9.19-13.2 18.2-26.5 1.71-2.57 3.49-5.09 5.28-7.61 2.83-4.01 5.35-8.12 7.82-12.4 2.23-3.62 4.77-7.01 7.33-10.4 0.61-1.05 0.61-1.05 1.23-2.13-0.5-1.48-0.5-1.48-1-3-8.99 0.09-18 0.18-27 0.29-4.17 0.05-8.34 0.09-12.5 0.13-4.04 0.04-8.08 0.09-12.1 0.14-1.53 0.02-3.06 0.03-4.58 0.04-9.23 0.08-18.1 0.66-27.3 2.08-3.73 0.33-6.91-0.01-10.6-0.68-0.09-1.6-0.14-3.21-0.19-4.81-0.04-0.9-0.07-1.79-0.11-2.71 0.3-2.48 0.3-2.48 1.49-4.11 2.42-1.84 3.93-1.74 6.95-1.73z" fill="#07090B"/>
<path transform="translate(293 908)" d="m0 0c1.21-0 1.21-0 2.45-0.01 2.68 0 5.36 0 8.04 0.01 1.85-0 3.71-0.01 5.56-0.01 3.89 0 7.79 0 11.7 0.01h15c3.83-0.01 7.66-0.01 11.5-0 1.85-0 3.69-0 5.53-0.01 2.58 0 5.15 0 7.72 0.01 0.77-0 1.54-0 2.33-0.01 5.26 0.03 5.26 0.03 6.37 1.14 0.14 4 0.04 8 0 12-1.02-0.07-2.04-0.14-3.09-0.22-13-0.85-26-0.9-39-0.84-2.13 0-4.26 0.01-6.4 0.01-5.16 0.01-10.3 0.03-15.5 0.05-0.02 7.94-0.04 15.9-0.05 23.8-0.01 3.68-0.01 7.37-0.03 11-0.01 3.56-0.01 7.11-0.02 10.7 0 1.36 0 2.72-0.01 4.08v5.69c-0.01 1.62-0.01 1.62-0.01 3.27-0.16 2.39-0.16 2.39 1.12 3.44 1.77 0.09 3.55 0.11 5.33 0.1 1.14-0.01 2.28-0.01 3.45-0.01 1.24-0.01 2.47-0.02 3.75-0.03 1.89 0 1.89 0 3.82-0.01 4.05-0.01 8.1-0.03 12.2-0.05 5.32-0.03 10.6-0.05 16-0.06 1.24-0.01 2.48-0.02 3.75-0.03 1.14 0 2.28 0 3.45-0.01 1.51-0.01 1.51-0.01 3.05-0.01 2.28 0.11 2.28 0.11 3.28 1.11 0.07 1.85 0.08 3.71 0.06 5.56-0.01 1.01-0.02 2.03-0.03 3.07-0.01 0.78-0.02 1.56-0.03 2.37-0.72 0.01-1.45 0.02-2.2 0.03-6.81 0.1-13.6 0.2-20.4 0.31-3.5 0.05-7 0.11-10.5 0.16-4.03 0.05-8.05 0.12-12.1 0.18-1.26 0.02-2.52 0.04-3.82 0.05-1.17 0.02-2.33 0.04-3.52 0.06-1.03 0.02-2.06 0.04-3.12 0.05-2.28-0.1-2.28-0.1-3.32 1.16-0.1 2.14-0.13 4.29-0.13 6.43 0 0.67 0 1.34-0.01 2.04 0 2.23 0 4.46 0.01 6.69 0 1.54 0 3.08-0.01 4.63 0 3.23 0 6.47 0.01 9.71 0.01 4.16 0 8.32 0 12.5-0.01 3.19-0.01 6.38 0 9.56 0 1.54 0 3.07-0.01 4.61 0 2.14 0 4.28 0.01 6.42v3.7c-0.18 2.64-0.18 2.64 1.13 3.73 3.05 0.1 6.07 0.14 9.12 0.12h2.84c7.86-0.05 15.7-0.38 23.5-0.76 6.46-0.3 12.9-0.47 19.4-0.49 1.22 0 1.22 0 2.46-0.01 5.55 0.02 5.55 0.02 6.67 1.14 0.07 1.69 0.08 3.37 0.06 5.06-0.01 0.92-0.02 1.84-0.03 2.79-0.01 0.71-0.02 1.42-0.03 2.15-22.2 0.64-44.4 1.1-66.6 1.12-0.98 0.01-1.95 0.01-2.95 0.01-2.75 0.01-5.5 0.01-8.24 0-0.83 0-1.65 0.01-2.5 0.01-5.63-0.03-5.63-0.03-6.75-1.14-0.1-2.15-0.12-4.31-0.12-6.46v-2.07c0-2.3 0-4.61 0.01-6.91v-4.94c0-4.48 0-8.96 0.01-13.4 0-4.68 0.01-9.36 0.01-14 0-8.86 0.01-17.7 0.02-26.6 0.01-10.1 0.01-20.2 0.02-30.3 0.01-20.8 0.03-41.5 0.05-62.3 3.11-1.56 6.41-1.14 9.83-1.13z" fill="#07090B"/>
<path transform="translate(1495,912)" d="m0 0v2h2c1.52 3.03 1.54 5.72 1 9-1.45 3.78-3.17 7.39-5 11-2.36-0.23-2.36-0.23-5-1-1.29-1.93-1.29-1.93-2.19-4.31-0.45-1.17-0.45-1.17-0.92-2.37-0.29-0.76-0.59-1.53-0.89-2.32-0.65-1.34-1.31-2.68-2-4h-2v-2c-0.83-0.27-1.65-0.54-2.5-0.81-1.81-0.62-3.61-1.24-5.36-1.99-8.34-3.53-15.1-2.81-23.4 0.55-9.36 4.32-14.9 9.61-18.5 19.4-2.21 7.84-1.35 14.5 1.81 21.8 1.56 2.34 1.56 2.34 3 4v2h2v2c0.86 0.4 0.86 0.4 1.74 0.8 2.37 1.26 4.34 2.72 6.47 4.35 6.93 4.91 14.6 8.05 22.4 11.4 28.8 12.6 28.8 12.6 36.7 26.7 4.8 12.2 3.67 27.4-1.38 39.3-7.36 14.8-17.3 24-32.9 29.4-20 6.65-40.7 2.13-59.4-6.06-1.57-0.94-1.57-0.94-2.57-2.94-0.12-2.41-0.18-4.83-0.19-7.25-0.01-1.3-0.03-2.61-0.04-3.95 0.22-3.65 0.9-6.42 2.23-9.8h3c0.27 0.8 0.54 1.61 0.81 2.44 0.39 0.84 0.79 1.69 1.19 2.56 0.99 0.33 1.98 0.66 3 1 1.29 1.42 1.29 1.42 2.62 3.19 6.42 7.74 15.5 12.4 25.4 13.8 10.9 0.67 21.2 0.22 30-7 8.05-7.94 11.1-15.5 11.2-26.8-0.09-8.61-1.65-14.2-7.55-20.6-8.66-8.37-19.8-12.9-30.6-17.9-19.6-9.15-19.6-9.15-24.1-12.7v-2c-0.6-0.26-1.2-0.51-1.81-0.78-6.37-3.55-9.83-11.6-12.2-18.2-3.18-12.7-0.17-26.6 6.47-37.7 7.29-11.1 19.1-17.9 31.9-21.1 15.6-3.19 31.6-0.71 45.6 6.81z" fill="#07090B"/>
<path transform="translate(1306 905)" d="m0 0c0.71 0 1.42 0 2.15 0.01 17 0.08 34.5 1.15 49.3 10.5 1.79 2.95 1.24 6.03 0.96 9.35-0.04 0.68-0.08 1.37-0.11 2.07-0.15 1.99-0.15 1.99-0.77 5.36l-3 2c-4.07-2.65-7.92-5.45-11.8-8.43-12.9-9.67-27-14.2-43.2-12.6-14.4 2.15-31.6 8.48-41.4 19.8-9.88 13.6-15.8 27.6-18.6 44.2-0.13 0.77-0.26 1.53-0.4 2.31-3.44 24.6 2.02 49.5 16.4 69.7 0.97 1.03 1.96 2.04 3 3 0.66 0.72 1.32 1.45 2 2.19 12.8 12.6 27.3 16.6 44.9 17.1 19-0.53 34.8-5.86 50.1-17.2l2 1c0.88 2.69 0.88 2.69 1 6-4.27 8.21-10.6 11-19 13.8-9.98 3.08-20.5 4.65-31 5.17-0.76 0.04-1.52 0.08-2.3 0.13-22.7 0.61-48.6-5.52-65.7-21.1-1.62-1.72-3.14-3.47-4.61-5.32-1.42-1.77-1.42-1.77-3.35-3.55-14.3-14.8-19.2-39.3-19-59.1 0.87-24.5 10.3-47.7 28-65 18.1-15.1 41.4-21.4 64.5-21.3z" fill="#07090B"/>
<path transform="translate(451 992)" d="m0 0h2.75c1.44 0.02 1.44 0.02 2.91 0.05 0.99 0.01 1.98 0.02 3 0.03 13.4 0.26 27.2 1.48 38.6 9.28v2c0.91 0.39 0.91 0.39 1.83 0.78 4.68 2.64 6.69 7.93 8.48 12.8 2.27 11.1 1.7 24.1-3.82 34.2-6.21 9.36-12.6 14.2-23.5 17.2-6.88 1.34-13.7 1.26-20.7 1.32-0.67 0.01-1.34 0.02-2.02 0.04-1.96 0.04-3.91 0.06-5.87 0.07-1.16 0.01-2.32 0.03-3.51 0.04-2.91-0.47-2.91-0.47-4.75-1.99-3.46-7.37-2.35-16.8-2.4-24.7 0-0.67-0.01-1.34-0.01-2.03-0.02-3.55-0.04-7.1-0.05-10.6-0.01-3.67-0.04-7.33-0.08-11-0.03-2.83-0.04-5.65-0.04-8.48-0.01-2.01-0.03-4.01-0.06-6.02 0-1.21 0.01-2.43 0.01-3.68-0.01-1.07-0.01-2.14-0.02-3.25 0.49-2.66 0.49-2.66 2.38-4.5 2.47-1.35 4.01-1.53 6.82-1.52z" fill="#FBFEFE"/>
<path transform="translate(1317 1138)" d="m0 0c9.18 8.3 14.1 16.5 14.8 29 0.16 13.8-1.17 25.6-10.8 36.2-8.77 8.32-19.6 7.61-30.9 7.41-1.5-0.01-3-0.03-4.5-0.04-3.64-0.03-7.29-0.08-10.9-0.14-1.9-4.03-2.24-7.24-2.24-11.7v-1.96c-0.01-2.14 0-4.27 0.01-6.4 0.01-1.49 0.01-2.98 0.01-4.47 0-3.11 0.01-6.22 0.02-9.33 0.02-3.99 0.02-7.98 0.02-12 0-3.07 0-6.14 0.01-9.21 0.01-1.47 0.01-2.94 0.01-4.41 0-2.06 0.01-4.11 0.02-6.16 0-1.17 0.01-2.34 0.01-3.54 0.13-2.87 0.13-2.87 1.13-5.87 11.6-3.86 32.3-2.69 43.4 2.62z" fill="#FBFEFE"/>
<path transform="translate(612 917)" d="m0 0c1.16-0.01 1.16-0.01 2.34-0.02 1.62 0 3.25 0 4.88 0.01 2.46 0.01 4.92-0.02 7.39-0.05 15.4-0.07 15.4-0.07 22.3 4.49 1.22 0.8 1.22 0.8 2.46 1.61 5.64 4.97 11 11.6 11.7 19.4 0.62 23.2 0.62 23.2-7.55 31.9-11.9 10.7-25.4 12.3-40.8 12.3-1.95 0.02-1.95 0.02-3.93 0.04h-3.74c-1.7 0.01-1.7 0.01-3.43 0.02-2.72-0.25-2.72-0.25-4.72-2.25-0.27-2.65-0.27-2.65-0.3-6.05-0.02-1.27-0.04-2.54-0.05-3.85-0.01-1.4-0.01-2.79-0.02-4.19-0.01-1.42-0.02-2.85-0.03-4.27-0.01-2.99-0.02-5.98-0.02-8.97-0.01-3.83-0.05-7.66-0.09-11.5-0.03-2.94-0.04-5.89-0.04-8.83 0-1.41-0.02-2.83-0.04-4.24-0.02-1.97-0.02-3.95-0.01-5.92 0-1.13-0.01-2.25-0.01-3.41 0.61-2.78 0.61-2.78 2.92-4.64 3.58-1.51 6.91-1.59 10.7-1.57z" fill="#FBFEFE"/>
<path transform="translate(1160 908)" d="m0 0c1.24-0.02 1.24-0.02 2.5-0.04h2.4c0.73-0.01 1.45-0.01 2.2-0.02 1.96 0.25 1.96 0.25 4.96 2.25 0.36 2.4 0.36 2.4 0.33 5.37 0 1.07-0.01 2.14-0.01 3.24-0.03 1.12-0.05 2.23-0.07 3.39 0 1.12-0.01 2.24-0.01 3.39-0.08 8.3-0.08 8.3-1.24 10.6-0.09 1.71-0.12 3.43-0.12 5.14-0.01 1.64-0.01 1.64-0.01 3.31v3.64 3.83c-0.01 3.46 0 6.93 0 10.4v10.9c-0.01 6.11 0 12.2 0 18.3 0.01 7.05 0.01 14.1 0 21.2v18.2 10.8c-0.01 4.04 0 8.09 0 12.1v3.59c0.01 6.58 0.32 13 1.13 19.5-2.49 1.24-3.78 0.97-6.53 0.69-0.89-0.09-1.79-0.18-2.7-0.27-0.94-0.1-1.87-0.2-2.83-0.3-1.4-0.13-1.4-0.13-2.84-0.27-6.97-0.72-6.97-0.72-8.1-1.85-0.09-2.14-0.12-4.28-0.12-6.42v-2.06c0-2.29 0-4.58 0.01-6.87v-4.91c0-4.46 0-8.91 0.01-13.4 0.01-4.65 0.01-9.3 0.01-14 0-8.82 0.01-17.6 0.02-26.4 0.01-10 0.02-20.1 0.02-30.1 0.01-20.6 0.03-41.3 0.05-61.9 3.41-1.7 7.19-1.19 10.9-1.19z" fill="#07090B"/>
<path transform="translate(455 917)" d="m0 0c0.73-0.01 1.46-0.02 2.21-0.02 1.55-0.02 3.11-0.03 4.66-0.04 2.34-0.01 4.69-0.06 7.03-0.1 9.55-0.1 16.9 0.4 24.5 6.66 0.7 0.8 1.4 1.6 2.13 2.43 0.72 0.78 1.44 1.57 2.18 2.38 4.82 7.25 5.44 14.6 5.38 23.1 0.03 1.43 0.03 1.43 0.06 2.9 0 7.03-1.43 10.8-6.43 15.9-7.83 6.64-14.3 11-24.7 12.2-0.73 0.09-1.46 0.17-2.21 0.26-5.87 0.61-11.7 0.83-17.6 0.87-1.24 0.01-1.24 0.01-2.5 0.03-5.82-0.03-5.82-0.03-8.07-2.28-0.24-2.07-0.24-2.07-0.24-4.66 0-0.97-0.01-1.94-0.01-2.94 0.01-1.05 0.02-2.1 0.02-3.18v-3.29l0.03-6.9c0.02-3.49 0.02-6.98 0.02-10.5 0-2.23 0.01-4.47 0.02-6.71v-3.14c0.03-4.76 0.14-9.5 0.49-14.2 0.05-0.79 0.11-1.58 0.17-2.39 0.61-2.51 1.51-3.45 3.5-5.06 2.98-1.49 6.05-1.21 9.32-1.24z" fill="#FBFEFE"/>
<path transform="translate(1021,516)" d="m0 0c3 1 3 1 4 2.99 0.28 0.86 0.57 1.71 0.86 2.6 0.47 1.39 0.47 1.39 0.94 2.82 0.31 0.98 0.63 1.96 0.95 2.97 0.33 0.97 0.66 1.94 1 2.94 2.38 7.29 2.38 7.29 1.25 10.7-0.66-0.78-1.32-1.57-2-2.38-6.16-5.38-13.7-4.87-21.5-4.68-10.1 0.19-10.1 0.19-15-0.47-3.28-0.44-5.37-0.24-8.53 0.53l-1-1-1 3h-2v2h-2v2c-0.52 0.25-1.04 0.51-1.57 0.77-1.05 0.52-1.05 0.52-2.12 1.04-0.68 0.34-1.37 0.68-2.07 1.02-4.4 2.3-8.56 4.99-12.8 7.63-13.4 8.44-26.9 16.5-41.5 22.7-11.5 4.93-22.9 10.2-34 16.1-7.53 4.03-15 7.68-23 10.8-0.65 0.25-1.3 0.5-1.98 0.76-10.4 3.94-20.6 6.31-31.6 7.95-0.94 0.14-1.88 0.28-2.85 0.43-0.83 0.12-1.67 0.24-2.54 0.36-2.26 0.36-2.26 0.36-4.05 2.5-1.99 0.4-3.99 0.74-6 1l-1-4c3.74-1.75 7.48-3.49 11.2-5.24 1.36-0.63 2.72-1.27 4.09-1.91 7.16-3.34 14.3-6.69 21.5-10 26-12 52-24.2 77.7-37 0.62-0.31 1.24-0.62 1.89-0.94 5.37-2.7 10.8-5.4 16.1-8.22 15.3-8.06 31.8-13.6 48.3-18.6 5.55-1.73 11-3.72 16.4-5.71 1.11-0.4 2.23-0.8 3.38-1.22 5.3-1.84 5.3-1.84 10.4-4.09z" fill="#07090B"/>
<path transform="translate(543,1129)" d="m0 0c0.99 0.49 0.99 0.49 2 1-0.56 5.24-1.85 9.78-3.81 14.7-2.19 5.56-4.17 11.2-6.04 16.8-1.31 3.97-2.67 7.92-4.03 11.9-0.25 0.73-0.5 1.47-0.76 2.23-1.05 3.06-2.1 6.11-3.15 9.16-0.52 1.52-1.05 3.04-1.57 4.56-0.5 1.48-1.01 2.95-1.52 4.43-1.82 5.27-3.53 10.6-5.16 15.9-1.01 2.43-1.86 3.72-3.96 5.3-3 0.12-3 0.12-6-1-3.54-7.21-5.73-15-8.19-22.6-0.24-0.75-0.48-1.49-0.73-2.25-3.9-12.1-7.45-24.2-10.7-36.4-0.3-1.14-0.6-2.27-0.91-3.43-0.26-1-0.52-1.99-0.79-3.01-0.46-2.19-0.46-2.19-1.67-3.24-2.85 7.47-5.66 15-8.27 22.5-1.16 3.38-2.35 6.76-3.55 10.1-0.89 2.55-1.79 5.1-2.68 7.66-1.4 3.99-2.82 7.98-4.26 12-0.58 1.61-1.14 3.22-1.71 4.84-0.79 2.29-1.62 4.56-2.44 6.84-0.24 0.7-0.48 1.39-0.72 2.11-1.15 3.08-1.77 4.66-4.81 6.07-3.2-0.16-4.21-1-6.56-3.13-0.99-1.97-0.99-1.97-1.69-4.25-0.27-0.87-0.54-1.73-0.82-2.62-0.42-1.4-0.42-1.4-0.85-2.83-0.3-0.98-0.6-1.96-0.91-2.97-0.99-3.19-1.95-6.38-2.92-9.58-0.67-2.18-1.34-4.37-2.01-6.55-1.95-6.4-3.88-12.8-5.8-19.2-0.4-1.35-0.4-1.35-0.81-2.72-1.56-5.21-3.1-10.4-4.63-15.7-0.19-0.64-0.38-1.29-0.57-1.96-2.99-10.3-2.99-10.3-2.99-12.7 3.46-0.49 3.46-0.49 7-1 2.87 3.3 3.79 6.28 4.81 10.5 1.57 6.24 3.32 12.4 5.19 18.6l1.56 5.16c0.25 0.82 0.49 1.64 0.75 2.48 2.12 7.07 4.15 14.2 5.98 21.3 0.22 0.87 0.44 1.74 0.67 2.63 0.44 1.71 0.87 3.43 1.29 5.14 0.3 1.17 0.3 1.17 0.6 2.36 0.18 0.7 0.35 1.39 0.53 2.11 0.56 1.98 0.56 1.98 2.62 3.75 2.95-5.62 5.25-11.2 7.24-17.2 0.29-0.86 0.58-1.72 0.88-2.61 0.93-2.73 1.84-5.46 2.76-8.2 1.2-3.58 2.4-7.17 3.61-10.8 0.3-0.87 0.59-1.74 0.89-2.64 2.3-6.78 4.78-13.5 7.36-20.2 1.33-3.48 1.33-3.48 2.3-7.27 0.96-3.18 0.96-3.18 2.96-5.18h3c3.58 8.28 6.69 16.6 9.5 25.2 0.59 1.77 0.59 1.77 1.18 3.58 7.1 21.6 7.1 21.6 9.4 32 0.18 0.79 0.35 1.58 0.54 2.4 0.33 1.52 0.65 3.04 0.95 4.56 0.45 2.27 0.45 2.27 1.43 5.27 1.49 0.49 1.49 0.49 3 1 4.2-9.26 7.2-18.7 10.1-28.4 1.3-4.34 2.62-8.67 3.94-13 0.39-1.26 0.39-1.26 0.78-2.54 1.98-6.43 3.99-12.8 6.17-19.2 0.25-0.77 0.51-1.54 0.77-2.33 1.41-4.04 2.92-6.72 6.23-9.48z" fill="#07090B"/>
<path transform="translate(842 380)" d="m0 0c23.8 0.9 48.8 11.9 70 22.2 1.05 0.51 1.05 0.51 2.13 1.02 18.7 9 18.7 9 23.9 13l1 3c-72.9 3.29-72.9 3.29-96 3v-1c0.75-0.05 1.51-0.1 2.3-0.15 0.99-0.07 1.98-0.15 3.01-0.23 1.48-0.1 1.48-0.1 2.99-0.21 2.91-0.25 2.91-0.25 5.7-2.41 0.5-2 0.5-2 0.56-4.25 0.22-3.06 0.57-5.12 1.62-8.06 1.07-2.58 1.07-2.58 0.12-4.64-1.97-3.09-4.69-5.01-7.53-7.27-1.95-1.96-2.59-3.03-2.77-5.78l2-2h1c-2.5-2.49-3.56-2.3-7-2.5-4.78-0.28-4.78-0.28-7-2.5 1-1 1-1 4.05-1.15z" fill="#07090B"/>
<path transform="translate(1273 1130)" d="m0 0c0.88 0 1.75 0.01 2.66 0.01h2.74c1.93 0 3.85 0 5.77 0.01 2.92 0.01 5.83 0 8.75-0.02 1.87 0.01 3.74 0.01 5.61 0.01 0.86 0 1.72-0.01 2.61-0.01 9.93 0.08 19.9 1.38 27.6 8.12 7.73 7.99 12.6 19.2 13 30.4-0.48 13.8-3.81 25.4-13.3 35.8-9.15 8.4-19.3 10.1-31.3 10.1h-2.73-5.67c-2.9-0.01-5.81 0-8.71 0h-5.52c-1.31 0-1.31 0-2.64 0.01-6.1-0.03-6.1-0.03-7.21-1.14-0.11-2.52-0.15-5-0.15-7.52 0-0.79-0.01-1.57-0.01-2.38-0.01-2.62-0.01-5.23-0.01-7.85 0-1.81-0.01-3.62-0.01-5.43-0.01-3.8-0.01-7.6-0.01-11.4 0-4.88-0.01-9.76-0.03-14.6-0.01-3.74-0.01-7.48-0.01-11.2 0-1.8-0.01-3.6-0.02-5.4-0.01-2.51 0-5.02 0-7.54 0-0.74-0.01-1.49-0.01-2.26 0.04-7.02 1.83-7.61 8.63-7.66zm0.63 5.28c-1.12 3.35-1.14 5.88-1.15 9.41 0 0.65-0.01 1.29-0.01 1.96-0.01 2.13-0.01 4.27-0.01 6.4 0 1.49-0.01 2.97-0.01 4.46-0.01 3.11-0.01 6.23-0.01 9.35 0 3.98-0.01 7.97-0.03 12-0.01 3.07-0.01 6.13-0.01 9.2 0 1.47-0.01 2.94-0.02 4.41-0.01 2.06 0 4.12 0 6.18v3.54c0.25 3.11 0.92 5.32 2.25 8.13 4.35 0.1 8.71 0.17 13.1 0.22 1.48 0.02 2.96 0.04 4.43 0.08 10.4 0.24 19.8 0 28.4-6.49 10.4-12.1 12.1-25.3 11.1-40.8-1.29-10.2-5.51-17-13-23.9-8.7-5.98-20.2-5.22-30.3-5.19-1.08 0-2.16 0-3.28-0.01-1.04 0-2.07 0-3.14 0.01h-2.85c-2.56 0.03-2.56 0.03-5.41 1.13z" fill="#131415"/>
<path transform="translate(982,1129)" d="m0 0c1.99 4.14 2.21 7.42 2.12 12 0 0.65-0.01 1.31-0.02 1.98-0.02 2.08-0.06 4.15-0.1 6.23-0.05 2.74-0.09 5.48-0.12 8.23-0.03 1.21-0.05 2.43-0.08 3.68-0.11 3.03-0.11 3.03 2.2 4.9 2.3 0.33 2.3 0.33 5 0.32 1.04 0.02 2.08 0.04 3.15 0.06 1.7 0.02 1.7 0.02 3.42 0.03 1.15 0.02 2.3 0.04 3.49 0.06 3.69 0.06 7.38 0.11 11.1 0.15 2.5 0.04 5 0.08 7.49 0.12 6.13 0.1 12.3 0.18 18.4 0.26-0.02-1.57-0.02-1.57-0.03-3.18-0.04-3.89-0.06-7.78-0.08-11.7-0.01-1.69-0.02-3.37-0.04-5.06-0.03-2.41-0.04-4.83-0.05-7.25-0.01-0.75-0.02-1.51-0.03-2.29 0-1.85 0.11-3.71 0.23-5.56 2-2 2-2 5.06-2.19 2.94 0.19 2.94 0.19 3.94 1.19 0.1 2.62 0.13 5.21 0.11 7.82v2.49c0 2.72 0 5.44-0.01 8.16 0 1.88-0.01 3.77-0.01 5.65 0 4.96-0.01 9.92-0.02 14.9-0.01 5.06-0.02 10.1-0.02 15.2-0.01 9.94-0.03 19.9-0.05 29.8-7.75 0.12-7.75 0.12-10-1 0.01-1.24 0.01-2.47 0.02-3.75 0.01-4.57 0.03-9.14 0.03-13.7 0.01-1.98 0.02-3.97 0.03-5.95 0.01-2.84 0.01-5.68 0.02-8.52 0-0.9 0.01-1.79 0.01-2.71 0-2.12-0.05-4.24-0.11-6.36-1.01-1.23-1.01-1.23-3.09-1.12-0.93 0-1.85 0-2.8 0.01h-3.15c-1.7 0-1.7 0-3.43 0.01-1.16 0-2.31 0.01-3.5 0.01-3.69 0-7.39 0.01-11.1 0.03-2.5 0-5 0.01-7.5 0.01-6.15 0.01-12.3 0.03-18.4 0.05 0.01 0.98 0.01 1.97 0.02 2.98 0.01 3.68 0.03 7.37 0.03 11 0.01 1.59 0.02 3.18 0.03 4.76 0.08 16.2 0.08 16.2-1.08 24.2-6.75 0.12-6.75 0.12-9-1-0.09-10.6-0.16-21.3-0.21-31.9-0.02-4.94-0.05-9.88-0.09-14.8-0.05-4.77-0.07-9.53-0.08-14.3-0.01-1.82-0.02-3.64-0.04-5.46-0.03-2.54-0.04-5.09-0.03-7.63-0.02-0.76-0.03-1.51-0.05-2.29 0.03-3.26 0.07-5.1 2.28-7.57 2.22-1.01 2.22-1.01 6.22-1.01z" fill="#141516"/>
<path transform="translate(1195,1130)" d="m0 0c0.99 0.33 1.98 0.66 3 1 1.07 2.34 1.94 4.58 2.77 7 0.53 1.47 1.05 2.94 1.58 4.41 0.27 0.76 0.55 1.53 0.82 2.31 1.3 3.58 2.69 7.12 4.09 10.7 0.42 1.04 0.42 1.04 0.84 2.11 0.86 2.17 1.72 4.34 2.59 6.51 0.45 1.13 0.45 1.13 0.91 2.28 4.34 10.9 8.89 21.6 13.9 32.2 2.57 5.42 4.72 10.8 6.46 16.6-1.24-0.08-2.47-0.16-3.75-0.25-0.7-0.05-1.39-0.09-2.11-0.14-3.05-0.87-4.17-2.12-6.14-4.61-1.1-2.55-2.05-5.01-2.94-7.62-2.03-5.75-4.28-11.2-7.18-16.6-0.88-1.82-0.88-1.82-0.88-3.82h-32c-6.56 14.4-6.56 14.4-12 29.3-0.34 0.9-0.69 1.81-1.05 2.74-3.12 1.38-3.12 1.38-6 2 1.17-8.53 5.07-16 8.68-23.8 2.44-5.27 4.82-10.6 7.16-15.9 0.33-0.76 0.67-1.51 1.01-2.29 1.37-3.11 2.75-6.22 4.12-9.34 3.98-9.05 8.07-18 12.6-26.8 1.29-2.61 2.41-5.21 3.44-7.92z" fill="#141516"/>
<path transform="translate(1090 908)" d="m0 0c1.1 0.01 2.19 0.02 3.32 0.03 0.84 0.01 1.69 0.02 2.56 0.03 1.35 4.89 0.86 9.51 0.56 14.5-0.6 12-0.67 23.9-0.66 35.9v2.88c0 5.91 0.01 11.8 0.03 17.7 0.01 5.09 0.01 10.2 0.02 15.3 0.01 9.92 0.02 19.8 0.05 29.8h-2v12c-3.97 0.99-3.97 0.99-8 2-2.22-3.33-2.27-4.44-2.32-8.32-0.02-1.11-0.04-2.21-0.06-3.34-0.02-1.21-0.03-2.42-0.04-3.66-0.02-1.27-0.04-2.53-0.06-3.84-0.05-3.45-0.09-6.91-0.13-10.4-0.03-2.87-0.07-5.75-0.11-8.62-0.31-22.6-0.37-45.1-0.25-67.6 0.01-1.12 0.01-2.24 0.01-3.39 0.01-2.08 0.03-4.15 0.04-6.22 0.02-4.65-0.11-9.01-1.08-13.6 2.76-1.38 5.04-1.09 8.12-1.06z" fill="#131415"/>
<path transform="translate(736,389)" d="m0 0-1 3h-2c-0.1 0.87-0.21 1.73-0.31 2.62-0.69 3.38-0.69 3.38-2.19 6-2.21 4.98-2.25 9.99-2.5 15.4h-2c0.5 0.99 0.5 0.99 1 2 2.71 0.48 5.34 0.84 8.06 1.12 0.76 0.09 1.52 0.18 2.3 0.27 1.88 0.21 3.76 0.41 5.64 0.61v1c-16.6 0.08-33.2-0.18-49.8-0.5-2.56-0.05-5.11-0.1-7.66-0.14-6.18-0.12-12.4-0.24-18.5-0.36v-3c18.2-9.95 36.2-19.8 55.8-26.6 0.75-0.27 1.5-0.53 2.27-0.8 4-1.32 6.86-1.97 10.9-0.64z" fill="#07090B"/>
<path transform="translate(300,1130)" d="m0 0h2c0.36 0.95 0.36 0.95 0.73 1.91 4.87 12.8 9.8 25.5 14.9 38.2 0.52 1.3 1.04 2.6 1.55 3.9 2.43 6.13 4.86 12.2 7.9 18.1 1.87 3.67 3.53 7.44 5.21 11.2 0.36 0.8 0.73 1.6 1.1 2.42 0.34 0.76 0.69 1.53 1.04 2.32 0.31 0.69 0.62 1.38 0.94 2.08 0.67 1.87 0.67 1.87 0.67 4.87-8.13-0.67-8.13-0.67-11-4-1-1.97-1-1.97-1.87-4.21-0.33-0.83-0.65-1.67-0.99-2.53-0.34-0.87-0.67-1.74-1.02-2.64-0.32-0.83-0.65-1.66-0.98-2.51-1.45-3.7-2.87-7.41-4.29-11.1-3.04-7.91-6.11-15.8-9.24-23.7-0.54-1.35-1.07-2.7-1.61-4.06-0.78-1.98-1.57-3.97-2.36-5.95-0.46-1.16-0.92-2.33-1.39-3.53-1.08-2.84-1.08-2.84-3.25-4.77-1.62 2.97-3.22 5.95-4.81 8.94-0.45 0.83-0.91 1.66-1.37 2.52-5.03 9.29-5.03 9.29-6.82 19.5h24l2 4c-1 1-1 1-3.68 1.11-1.17 0-2.34-0.01-3.54-0.01-1.26-0.01-2.52-0.01-3.82-0.01l-4.02-0.03c-1.35 0-2.69-0.01-4.04-0.01-3.3-0.01-6.6-0.03-9.9-0.05-1.21 2.52-2.42 5.04-3.62 7.56-0.37 0.76-0.73 1.53-1.11 2.31-1.78 3.79-3.48 7.57-4.96 11.5-0.26 0.68-0.51 1.36-0.77 2.05-0.69 1.87-1.36 3.74-2.02 5.61-1.72 3.37-3.14 4.4-6.52 5.98-1.16-1.62-1.16-1.62-2-4 0.93-2.83 0.93-2.83 2.59-6.1 0.29-0.59 0.58-1.18 0.88-1.79 0.63-1.26 1.26-2.52 1.9-3.78 1.35-2.63 2.66-5.27 3.97-7.92 0.65-1.32 1.3-2.63 1.96-3.95 2.47-4.95 4.8-9.95 7.01-15 0.3-0.69 0.6-1.38 0.92-2.09 0.6-1.38 1.2-2.76 1.81-4.15 4.74-10.8 9.51-21.7 15-32.2 0.61-1.21 1.21-2.42 1.81-3.62 0.39-0.79 0.79-1.57 1.19-2.38z" fill="#131415"/>
<path transform="translate(1094 1130)" d="m0 0c1.64 0 3.28 0.01 4.92 0.03 1.29 0.01 1.29 0.01 2.61 0.01 2.77 0.01 5.53 0.04 8.29 0.06l5.61 0.03c4.59 0.02 9.17 0.06 13.8 0.1 0.5 2.47 0.5 2.47 1 5-0.96-0.01-1.93-0.01-2.92-0.02-3.56-0.02-7.13-0.03-10.7-0.04-1.55 0-3.09-0.01-4.64-0.02-2.22-0.01-4.43-0.02-6.65-0.02-0.69-0.01-1.39-0.01-2.1-0.02-1.67 0-3.33 0.06-5 0.12-1.33 1.1-1.33 1.1-1.11 3.86 0 1.26 0.01 2.51 0.02 3.8v3.68c0.01 1.56 0.02 3.12 0.03 4.72 0.02 4.93 0.04 9.86 0.06 14.9l31 2c0.5 1.98 0.5 1.98 1 4h-32c-0.02 5.11-0.04 10.2-0.05 15.3-0.01 1.74-0.01 3.48-0.02 5.22-0.01 2.5-0.02 4.99-0.02 7.48-0.01 0.79-0.02 1.57-0.02 2.37 0 1.87 0.05 3.74 0.11 5.61 1.11 1.34 1.11 1.34 3.93 1.08 1.28-0.02 2.56-0.04 3.88-0.06l4.2-0.03c2.22-0.03 4.44-0.06 6.65-0.09 2.14-0.03 4.27-0.05 6.4-0.06 1.92-0.03 1.92-0.03 3.89-0.05 3.05 0.21 3.05 0.21 5.05 2.21v3c-20.8 0.49-20.8 0.49-42 1-1.53-3.07-1.14-6.27-1.14-9.63-0.01-0.79-0.01-1.58-0.01-2.39-0.01-2.61-0.01-5.22-0.02-7.83 0-1.81 0-3.61-0.01-5.42v-11.4c0-4.87-0.02-9.74-0.03-14.6-0.01-3.73-0.02-7.47-0.02-11.2 0-1.8 0-3.6-0.01-5.39-0.01-2.51-0.01-5.02 0-7.52-0.01-0.75-0.01-1.5-0.02-2.27 0.04-5.43 0.19-7.24 6.07-7.59z" fill="#141516"/>
<path transform="translate(791,1133)" d="m0 0c1.38 2.69 1.38 2.69 2 5-2.84 0.82-4.39 1.27-7.14 0.04-0.7-0.47-1.39-0.93-2.11-1.42-5.23-3.09-9.84-4.52-15.9-3.13-5.43 2.17-8.08 5.92-10.8 11-1.48 3.49-1.87 5.81-1.07 9.53 1.65 2.19 2.86 3.38 5 5 0.66 0.52 1.32 1.04 2 1.58 5.12 3.83 10.4 6.64 16.2 9.36 6.22 2.96 11.1 5.99 14.8 12.1 1.93 5.78 1.64 11.9-0.12 17.7-4.94 8.72-9.32 13.1-18.9 16.3-17.6 1.21-17.6 1.21-25-4-2.62-2.5-2.62-2.5-4-5 0.25-2.31 0.25-2.31 1-4 4.74 0.3 7.47 2.66 11 5.53 4.42 3.32 7.88 3.97 13.4 3.85 5.82-0.85 9.5-3.98 13-8.5 2.71-4.99 3.15-9.3 2.56-14.9-1.37-2.87-1.37-2.87-3-5v-2c-0.73-0.27-1.46-0.54-2.21-0.82-2.69-1.14-5.01-2.44-7.48-3.99-3.45-2.12-6.92-4.04-10.6-5.81-8.88-4.42-12.5-7.94-15.8-17.2 0-7.51 3.36-14.5 8.51-19.8 8.95-8.2 24.7-8.34 34.5-1.36z" fill="#07090B"/>
<path transform="translate(599,1129)" d="m0 0c0.99 0.33 1.98 0.66 3 1 1.06 2.36 1.93 4.62 2.75 7.06 2.08 5.86 4.33 11.6 6.87 17.2 2.34 5.24 4.47 10.5 6.37 15.9 3.82 10.5 8.72 20.6 13.7 30.6 0.86 1.77 1.72 3.54 2.58 5.3 0.51 1.04 1.02 2.07 1.54 3.14 1.02 2.28 1.74 4.3 2.23 6.74-1.44-0.26-2.88-0.53-4.31-0.81-1.2-0.23-1.2-0.23-2.43-0.46-2.65-0.86-3.48-1.61-5.26-3.73-1.27-2.54-1.27-2.54-2.53-5.62-0.48-1.15-0.95-2.3-1.44-3.49-0.51-1.25-1.02-2.51-1.53-3.77l-1.59-3.87c-5.19-12.7-10.1-25.6-14.9-38.5-0.69-1.83-1.42-3.65-2.19-5.45-0.86-2.32-0.86-2.32-0.86-5.32-3.23 0.7-3.23 0.7-4.52 3.7-0.78 1.76-0.78 1.76-1.58 3.57-0.28 0.63-0.57 1.26-0.86 1.91-0.59 1.33-1.18 2.67-1.77 4.01-0.89 2.04-1.8 4.08-2.71 6.11-3.42 7.64-3.42 7.64-5.56 15.7-0.97 2.07-2 4.11-3.06 6.12-3.48 6.7-6.4 13.6-9.19 20.6-0.31 0.78-0.63 1.55-0.95 2.35-0.28 0.69-0.55 1.39-0.84 2.1-1.07 2.07-2.15 3.39-3.96 4.86-2.19-0.31-2.19-0.31-4-1 0.61-4.49 2.42-8.1 4.5-12 3.16-6.19 6.14-12.4 8.97-18.8 0.57-1.26 0.57-1.26 1.14-2.55 1.16-2.58 2.3-5.17 3.45-7.75 1.53-3.45 3.06-6.89 4.6-10.3 0.37-0.82 0.73-1.64 1.11-2.49 2.78-6.17 5.77-12.2 8.93-18.2 1.82-4.03 2.08-7.5 2.3-11.9l2-2z" fill="#07090B"/>
<path transform="translate(905,1129)" d="m0 0h2c0.22 0.6 0.43 1.21 0.66 1.83 1 2.81 2.02 5.61 3.03 8.42 0.51 1.42 0.51 1.42 1.03 2.87 4.03 11.2 8.74 22 13.5 32.9 0.47 1.07 0.95 2.15 1.43 3.25 3.44 7.78 6.91 15.6 10.4 23.3 2.02 4.47 4 8.95 5.91 13.5-5.06 0.3-7.95 0.11-12-3-1.56-2.78-1.56-2.78-2.87-6.15-0.24-0.61-0.48-1.22-0.73-1.84-0.77-1.98-1.52-3.96-2.28-5.95-0.53-1.37-1.06-2.74-1.6-4.11-3.22-8.31-6.27-16.7-9.13-25.1-2.77-8.1-6.04-16-9.39-23.8h-2c-0.25 0.83-0.5 1.66-0.75 2.52-1.42 3.95-3.24 7.52-5.19 11.2-3.05 5.95-5.53 11.7-7.06 18.2-0.33 1.33-0.67 2.67-1 4h-2c-0.27 0.85-0.55 1.7-0.83 2.58-1.18 3.44-2.52 6.75-3.96 10.1-0.26 0.61-0.52 1.22-0.79 1.85-0.54 1.27-1.09 2.55-1.64 3.83-0.85 1.96-1.69 3.93-2.52 5.89-0.54 1.25-1.07 2.49-1.61 3.74-0.72 1.69-0.72 1.69-1.47 3.42-1.18 2.59-1.18 2.59-2.18 3.59-1.67 0.04-3.33 0.04-5 0 0.54-4.8 2.06-8.49 4.31-12.7 3.84-7.39 7.27-14.9 10.6-22.6 0.51-1.16 1.02-2.32 1.55-3.52 1.02-2.31 2.04-4.62 3.06-6.93 2.11-4.8 4.24-9.58 6.39-14.4 0.36-0.82 0.73-1.63 1.1-2.47 2.21-4.9 4.57-9.71 7.03-14.5 1.37-2.91 2.13-5.87 2.93-8.98l1-1z" fill="#07090B"/>
<path transform="translate(964,996)" d="m0 0 2 1v79c-2.96 0.99-4.97 1.13-8.06 1.12-1.32 0.01-1.32 0.01-2.66 0.01-2.28-0.13-2.28-0.13-4.28-1.13 0.99-23.4 1.98-46.9 3-71l3 2 4-9h2l1-2z" fill="#07090B"/>
<path transform="translate(662,1130)" d="m0 0c1.52 1.57 1.52 1.57 2.81 3.69 0.51 0.82 1.01 1.64 1.53 2.48 0.82 1.4 0.82 1.4 1.66 2.83 0.62 1.02 1.24 2.03 1.88 3.08 14.1 23.8 14.1 23.8 14.1 30.9h4c1.7-1.76 1.7-1.76 3.1-4.18 0.57-0.9 1.14-1.8 1.72-2.73 0.6-0.98 1.19-1.96 1.8-2.97 0.93-1.48 0.93-1.48 1.87-2.99 4.34-7.04 8.46-14.2 12.3-21.5 2.02-3.79 3.92-6.78 7.2-9.64l2 2c-0.3 4.42-2.31 7.55-4.61 11.3-0.36 0.59-0.72 1.18-1.09 1.79-1.16 1.88-2.32 3.76-3.49 5.64-0.76 1.24-1.53 2.48-2.29 3.72-1.48 2.42-2.97 4.83-4.46 7.24-2.72 4.43-5.4 8.88-8.06 13.4-0.53 0.81-1.06 1.63-1.6 2.46-2.66 4.82-2.52 9.39-2.5 14.8 0 1.02 0 1.02 0.01 2.06 0 2.16 0.01 4.32 0.03 6.48 0 1.47 0.01 2.94 0.01 4.41 0.01 3.6 0.03 7.19 0.05 10.8-6.15-0.59-6.15-0.59-8-1-1.33-2.66-0.85-4.24-0.5-7.19 1.91-21-4.7-35.4-15.1-52.9-0.63-1.07-1.26-2.13-1.91-3.23-1.27-2.13-2.54-4.26-3.83-6.38-0.88-1.48-0.88-1.48-1.78-2.99-0.53-0.88-1.06-1.76-1.61-2.66-1.39-2.9-1.89-5.47-2.27-8.65 2.75-1.37 4.1-0.9 7 0z" fill="#07090B"/>
<path transform="translate(374 1130)" d="m0 0c2.44 0.19 2.44 0.19 3.44 1.19 1.45 8.82 1.05 17.8 0.88 26.7-0.03 1.48-0.05 2.97-0.08 4.46-0.06 3.87-0.13 7.75-0.2 11.6-0.07 3.97-0.13 7.94-0.2 11.9-0.13 7.76-0.26 15.5-0.4 23.3 1.57-0.02 1.57-0.02 3.18-0.03 3.89-0.04 7.77-0.06 11.7-0.08 1.69-0.01 3.37-0.03 5.05-0.04 2.42-0.03 4.84-0.04 7.26-0.05 0.75-0.01 1.51-0.02 2.28-0.03 1.86 0 3.72 0.11 5.57 0.23 2 2 2 2 2 5-6.25 0.02-12.5 0.04-18.8 0.05-2.12 0.01-4.25 0.01-6.38 0.02-3.05 0.02-6.1 0.02-9.15 0.03-1.44 0-1.44 0-2.9 0.01h-2.67c-0.78 0-1.56 0.01-2.36 0.01-1.79-0.12-1.79-0.12-2.79-1.12-0.11-2.52-0.15-5-0.15-7.52 0-0.79 0-1.57-0.01-2.38-0.01-2.62-0.01-5.23-0.01-7.85 0-1.81-0.01-3.62-0.01-5.43-0.01-3.8-0.01-7.6-0.01-11.4 0-4.87-0.01-9.75-0.03-14.6-0.01-3.74-0.01-7.48-0.01-11.2 0-1.8-0.01-3.6-0.01-5.4-0.01-2.51-0.01-5.02-0.01-7.54 0-0.74-0.01-1.49-0.01-2.26 0.04-7.22 0.04-7.22 4.82-7.57z" fill="#131415"/>
<path transform="translate(607,712)" d="m0 0c5.17 0.58 9.78 1.81 14.7 3.56 8.39 2.91 16.9 5.4 25.4 7.82 1.27 0.35 2.53 0.71 3.84 1.08 3.01 0.85 6.02 1.7 9.04 2.54l-1 3c-0.99 0.33-1.98 0.66-3 1-2.51 2.89-4.29 6.15-6.12 9.5-0.52 0.94-1.04 1.88-1.58 2.84-1.12 2.3-1.98 4.13-2.3 6.66 1.35 2.73 1.35 2.73 3 5-3.22-0.59-5.01-1.57-7.44-3.75-0.55-0.49-1.11-0.98-1.68-1.48-2.35-2.21-4.61-4.49-6.88-6.77-0.87-0.86-1.75-1.72-2.65-2.61-5.34-5.29-10.6-10.6-15.4-16.4-0.73-0.87-1.45-1.75-2.2-2.64-5.8-7.09-5.8-7.09-5.8-9.36z" fill="#07090B"/>
<path transform="translate(958,943)" d="m0 0 1 2c1.15 0.16 2.31 0.33 3.5 0.5 1.15 0.16 2.31 0.33 3.5 0.5 1.14 2.29 1.13 3.56 1.13 6.09 0 0.85 0.01 1.69 0.01 2.56 0 0.92-0.01 1.83-0.01 2.78 0 0.94 0 1.88 0.01 2.84 0 1.99-0.01 3.99-0.01 5.98 0 3.04 0 6.08 0.01 9.12 0 1.94-0.01 3.87-0.01 5.81 0 0.9 0.01 1.81 0.01 2.75-0.02 4.15-0.08 8.02-1.14 12.1h-2l-1 3-2-1c-0.99 3.3-1.98 6.6-3 10-3-2-3-2-3.69-4.42-0.43-4.98-0.34-9.9-0.22-14.9 0.02-1.09 0.04-2.18 0.06-3.3 0.05-2.29 0.1-4.58 0.15-6.88l0.21-10.5c0.04-2.23 0.09-4.47 0.14-6.7 0.02-1.04 0.04-2.09 0.06-3.16 0.24-10 0.24-10 1.29-14.2l2-1z" fill="#131415"/>
<path transform="translate(1195,1143)" d="m0 0c1.44 2.75 2.58 5.48 3.59 8.41 0.29 0.84 0.57 1.68 0.87 2.55 0.3 0.88 0.6 1.76 0.92 2.66 2.17 6.33 4.39 12.6 7.09 18.7 0.53 1.68 0.53 1.68-0.47 3.68-8.91-0.33-17.8-0.66-27-1-1-2-1-2-0.29-4.7 2.45-6.86 5.18-13.5 8.41-20 0.34-0.68 0.68-1.36 1.02-2.07 1.62-3.17 3.09-5.95 5.86-8.24z" fill="#FBFEFE"/>
<path transform="translate(434,1130)" d="m0 0c3 3.13 3.81 6.34 4.81 10.5 1.57 6.24 3.32 12.4 5.19 18.6 0.51 1.7 1.02 3.4 1.54 5.1 0.7 2.35 1.41 4.69 2.14 7.03 0.59 1.93 1.17 3.87 1.76 5.81 0.33 1.07 0.65 2.14 0.99 3.25 0.57 2.73 0.52 4.17-0.43 6.75l-1-3-5-1c-0.1-0.72-0.21-1.44-0.31-2.19-1.03-4.19-3.32-7.25-5.69-10.8-0.92-2.77-1.78-5.52-2.6-8.32-0.24-0.81-0.48-1.62-0.73-2.46-0.51-1.71-1.02-3.43-1.52-5.14-0.77-2.64-1.55-5.27-2.34-7.9-0.49-1.66-0.98-3.33-1.47-5-0.24-0.79-0.47-1.58-0.71-2.39-1.63-5.56-1.63-5.56-1.63-7.79 2.57-1.29 4.15-1.35 7-1z" fill="#131415"/>
<path transform="translate(832,785)" d="m0 0c8.43 2.2 16.7 4.73 25 7.44 1.21 0.38 2.43 0.76 3.68 1.16 1.73 0.57 1.73 0.57 3.51 1.15 1.04 0.33 2.09 0.67 3.17 1.02 2.88 1.34 4 2.55 5.64 5.23-6.34 2.02-12.8 3.03-19.3 4.06-2.17 0.34-4.33 0.69-6.49 1.04-1.43 0.22-1.43 0.22-2.88 0.45-2.33 0.34-2.33 0.34-4.32 1.45-2 0.04-4 0.04-6 0 0.58-0.27 1.15-0.54 1.75-0.81 2.28-1.21 4.22-2.6 6.25-4.19-0.64-0.7-1.28-1.4-1.94-2.12-2.24-3.13-2.55-5.14-3.06-8.88l-2-1v-2c-0.96-1.36-1.96-2.7-3-4z" fill="#07090B"/>
<path transform="translate(543,1129)" d="m0 0 2 1c-0.56 5.24-1.85 9.78-3.81 14.7-2.19 5.55-4.16 11.2-6.03 16.8-2.1 6.32-4.27 12.6-6.42 18.9-0.81 2.34-1.61 4.68-2.41 7.02-0.51 1.52-1.03 3.03-1.55 4.54-0.24 0.69-0.47 1.38-0.71 2.09-1.61 4.67-3.32 9.31-5.07 13.9l-4-1c0.67-4.08 1.96-7.61 3.5-11.4 3.08-7.91 5.48-16 7.88-24.1 2.82-9.57 5.72-19.1 8.93-28.6 0.32-0.95 0.63-1.9 0.95-2.87 1.58-4.55 2.82-7.95 6.74-11z" fill="#131415"/>
<path transform="translate(596,1144)" d="m0 0c1.13 2.8 1.02 3.95 0.03 6.85-0.5 1.08-1.01 2.16-1.52 3.27-0.54 1.18-1.08 2.37-1.64 3.59-0.58 1.24-1.16 2.48-1.75 3.73-1.12 2.43-2.24 4.87-3.36 7.31-0.51 1.08-1.01 2.16-1.53 3.27-1.12 2.71-1.71 5.11-2.23 7.98-0.97 2.07-2 4.11-3.06 6.12-3.48 6.7-6.4 13.6-9.19 20.6-0.31 0.78-0.63 1.55-0.95 2.35-0.28 0.69-0.55 1.39-0.84 2.1-1.07 2.07-2.15 3.39-3.96 4.86-2.19-0.31-2.19-0.31-4-1 0.61-4.48 2.41-8.08 4.48-12 3.21-6.26 6.22-12.6 9.1-19 0.38-0.86 0.76-1.71 1.16-2.59 1.17-2.63 2.34-5.25 3.51-7.88 1.19-2.66 2.38-5.33 3.57-7.99 0.73-1.64 1.46-3.28 2.19-4.92 2.2-4.93 4.54-9.77 6.99-14.6h2l1-2z" fill="#07090B"/>
<path transform="translate(279,1174)" d="m0 0h4l2 3c2.52 0.42 2.52 0.42 5.45 0.29 1.07-0.01 2.15-0.02 3.26-0.03 1.12-0.02 2.25-0.05 3.41-0.07 1.14-0.02 2.28-0.03 3.45-0.04 2.81-0.04 5.62-0.09 8.43-0.15l2 4c-1 1-1 1-3.68 1.11-1.17 0-2.34-0.01-3.54-0.01-1.26-0.01-2.52-0.01-3.82-0.01l-4.02-0.03c-1.35 0-2.69-0.01-4.04-0.01-3.3-0.01-6.6-0.03-9.9-0.05-1.21 2.52-2.42 5.04-3.62 7.56-0.55 1.15-0.55 1.15-1.11 2.31-1.78 3.79-3.48 7.57-4.96 11.5-0.26 0.68-0.51 1.36-0.77 2.05-0.69 1.87-1.36 3.74-2.02 5.61-1.72 3.37-3.14 4.4-6.52 5.98-1.17-1.6-1.17-1.6-2-4 0.99-2.96 0.99-2.96 2.73-6.38 0.3-0.62 0.6-1.23 0.92-1.86 0.98-1.97 1.97-3.93 2.97-5.88 1.3-2.57 2.58-5.13 3.86-7.7 0.31-0.62 0.62-1.24 0.94-1.87 2.48-5 4.64-10.1 6.58-15.3z" fill="#141516"/>
<path transform="translate(896,1149)" d="m0 0h4c-0.55 4.88-2.04 8.33-4.38 12.6-3.3 6.27-5.28 12.4-6.62 19.4h-2c-0.27 0.85-0.55 1.7-0.83 2.58-1.18 3.44-2.52 6.75-3.96 10.1-0.26 0.61-0.52 1.22-0.79 1.85-0.54 1.27-1.09 2.55-1.64 3.83-0.85 1.96-1.69 3.93-2.52 5.89-0.54 1.25-1.07 2.49-1.61 3.74-0.72 1.69-0.72 1.69-1.47 3.42-1.18 2.59-1.18 2.59-2.18 3.59-1.67 0.04-3.33 0.04-5 0 0.54-4.8 2.06-8.49 4.31-12.7 5.59-10.8 10.4-21.9 15.3-33.1 2.05-4.65 4.11-9.29 6.18-13.9l1.92-4.32c0.44-0.99 0.88-1.97 1.33-2.99z" fill="#090B0D"/>
<path transform="translate(733,652)" d="m0 0 4 1c-2 10-2 10-2.55 12.3-0.6 3.56-0.71 7.07-0.76 10.7-0.03 0.7-0.06 1.4-0.09 2.12-0.05 3.79 0.28 5.7 2.42 8.88 0.65 0.66 1.31 1.32 1.98 2-0.99 0.5-0.99 0.5-2 1-6.7-3.04-11.1-7.45-14-14.2-1.43-4.76-0.59-7.86 1.47-12.3 2.64-4.33 5.97-7.93 9.53-11.5z" fill="#07090B"/>
<path transform="translate(791,1133)" d="m0 0c1.38 2.69 1.38 2.69 2 5-2.84 0.82-4.39 1.27-7.14 0.04-0.7-0.47-1.39-0.93-2.11-1.42-5.23-3.09-9.84-4.52-15.9-3.13-5.44 2.17-8.09 5.93-10.8 11-1.48 3.48-1.77 5.79-1.07 9.52 1.16 2.52 2.48 4.67 4 7-3.67 0-5-0.95-8-3-0.8-0.54-1.61-1.07-2.44-1.62-1.85-2.82-1.68-3.43-1.06-6.63 2.22-7.82 5.24-14.5 12.5-18.8 9.57-3.92 21.2-4.22 30 2z" fill="#131415"/>
<path transform="translate(570,611)" d="m0 0c1.76 3.09 2 4.23 2 8h2c0.52 1.07 1.03 2.14 1.56 3.25 2.4 4.25 5.15 5.56 9.44 7.75 1.94 1.62 1.94 1.62 3 3v2h10l1 2c-3.22 0.87-6.46 1.72-9.69 2.56-0.91 0.25-1.82 0.5-2.76 0.75-1.33 0.34-1.33 0.34-2.69 0.69-1.21 0.33-1.21 0.33-2.46 0.65-2.71 0.4-4.76 0.03-7.4-0.65-6.06-25.9-6.06-25.9-4-30z" fill="#07090B"/>
<path transform="translate(440,1172)" d="m0 0c2.68 2.68 3.68 5.48 5 9l-1 2c1.14 0.15 1.14 0.15 2.31 0.31 3.08 0.79 3.79 1.2 5.69 3.69 0.82 2.5 1.52 4.89 2.12 7.44 0.17 0.67 0.34 1.33 0.52 2.02 0.46 1.85 0.91 3.69 1.36 5.54 0.33 1.33 0.67 2.67 1 4h2c2 3 2 3 1.62 5.69-0.3 1.14-0.3 1.14-0.62 2.31-2.75 0.84-4.33 1.32-6.98 0.07-3.06-3.14-3.84-6.74-5.04-10.9-0.26-0.87-0.52-1.73-0.79-2.61-0.82-2.75-1.63-5.5-2.44-8.26-0.56-1.86-1.12-3.73-1.68-5.59-1.37-4.57-2.73-9.14-4.07-13.7l1-1z" fill="#07090B"/>
<path transform="translate(480,1145)" d="m0 0h3c-0.09 1.33-0.2 2.67-0.31 4-0.06 0.74-0.12 1.48-0.18 2.25-0.57 3.09-1.57 5.79-2.71 8.71-1.18 3.03-2.23 6.1-3.3 9.16-4.67 13.4-9.61 26.6-14.5 39.9-0.99-0.33-1.98-0.66-3-1v-2l-2-1c0.88-1.18 0.88-1.18 1.78-2.38 2.78-4.19 4.2-8.73 5.75-13.5 0.48-1.42 0.48-1.42 0.96-2.86 1.01-3.01 2.01-6.02 3.01-9.03 1-3 2-5.99 3.01-8.99 0.62-1.85 1.24-3.71 1.85-5.57 2-5.99 4.23-11.8 6.64-17.7z" fill="#131415"/>
<path transform="translate(716,1129)" d="m0 0 2 2c-0.3 4.42-2.31 7.55-4.61 11.3-0.36 0.59-0.72 1.18-1.09 1.79-1.16 1.88-2.32 3.76-3.49 5.64-0.76 1.24-1.53 2.48-2.29 3.72-1.48 2.42-2.97 4.83-4.46 7.24-2.72 4.43-5.4 8.88-8.06 13.4-0.52 0.87-1.05 1.74-1.59 2.63-1.24 2.09-2.36 4.18-3.41 6.37-1.51-2.52-2.48-4.16-3-7 1.01-3.06 2.84-5.43 4.75-8 1.05-1.5 2.09-3.01 3.13-4.52 0.53-0.75 1.06-1.5 1.6-2.28 2.22-3.21 4.22-6.53 6.21-9.89 0.36-0.6 0.72-1.2 1.09-1.82 1.87-3.15 3.69-6.31 5.49-9.5 0.36-0.65 0.73-1.3 1.1-1.97 1.01-1.79 2-3.59 3-5.39 1.63-2.63 1.63-2.63 3.63-3.63z" fill="#131415"/>
<path transform="translate(924,1185)" d="m0 0c2.82 0.18 2.82 0.18 6 1 1.66 2.24 1.66 2.24 2.92 5.17 0.47 1.06 0.94 2.12 1.42 3.21 0.47 1.11 0.93 2.22 1.41 3.37 0.48 1.1 0.96 2.2 1.46 3.33 2.01 4.61 3.94 9.25 5.79 13.9-5.06 0.3-7.98 0.16-12-3-1.31-2.44-2.31-4.62-3.25-7.19-0.26-0.63-0.51-1.27-0.77-1.92-1.78-4.63-2.45-8.96-2.98-13.9l-1-2 1-2z" fill="#131415"/>
<path transform="translate(1090 908)" d="m0 0c1.1 0.01 2.19 0.02 3.32 0.03 0.84 0.01 1.69 0.02 2.56 0.03 1.27 4.72 0.93 9.13 0.62 13.9-0.04 0.79-0.09 1.57-0.13 2.38-0.26 4.29-0.69 8.45-1.49 12.7h-1c-0.09-1.11-0.17-2.22-0.26-3.37-0.24-1.2-0.49-2.4-0.74-3.63-0.64-0.3-1.27-0.6-1.92-0.91-2.87-1.5-3.17-3.07-4.21-6.09-1.33-3.87-1.33-3.87-3.87-7-0.41-2.32-0.74-4.65-1-7 2.76-1.38 5.04-1.09 8.12-1.06z" fill="#080A0C"/>
<path transform="translate(1046,1136)" d="m0 0h3c0.03 1.02 0.05 2.04 0.08 3.09 0.09 3.78 0.19 7.55 0.29 11.3 0.05 1.63 0.09 3.27 0.13 4.9 0.05 2.35 0.12 4.7 0.18 7.05 0.03 1.1 0.03 1.1 0.05 2.22 0.06 3.83 0.06 3.83 1.27 7.41l-1 2c-0.16 2.55-0.26 5.08-0.32 7.63-0.02 0.75-0.04 1.51-0.06 2.28-0.06 2.41-0.12 4.81-0.18 7.21-0.05 1.63-0.09 3.26-0.13 4.89-0.11 4-0.21 7.99-0.31 12-1.48 0.49-1.48 0.49-3 1v-73z" fill="#FDFEFE"/>
<path transform="translate(377,1156)" d="m0 0h4c0.02 5.96 0.04 11.9 0.05 17.9l0.03 6.09c0.01 2.91 0.01 5.82 0.02 8.73 0 0.92 0.01 1.83 0.01 2.77 0 2.18-0.05 4.35-0.11 6.52-0.5 0.49-0.5 0.49-1 1l1 2h-2c0.33 0.78 0.66 1.57 1 2.38 1 2.62 1 2.62 1 4.62h12v2c-2.29 0.03-4.58 0.05-6.88 0.06-1.27 0.01-2.55 0.03-3.86 0.04-3.26-0.1-3.26-0.1-5.26-1.1v-53z" fill="#FDFEFE"/>
<path transform="translate(314,1182)" d="m0 0 4 1c0.06 1.09 0.12 2.19 0.19 3.31 0.44 3.79 0.44 3.79 3.19 5.69 2.67 1.34 2.67 1.34 5.62 0 1.51 3.27 3.01 6.54 4.5 9.81 0.43 0.93 0.86 1.86 1.3 2.82 0.41 0.89 0.81 1.78 1.23 2.7 0.38 0.82 0.76 1.65 1.14 2.49 0.83 2.18 0.83 2.18 0.83 5.18-8.14-0.67-8.14-0.67-11-4-1.03-2.03-1.03-2.03-1.94-4.35-0.34-0.85-0.67-1.71-1.02-2.58-0.34-0.89-0.69-1.78-1.04-2.69-0.51-1.3-0.51-1.3-1.04-2.63-2.17-5.52-4.14-11.1-5.96-16.8z" fill="#07090B"/>
<path transform="translate(1169,951)" d="m0 0h2v92h-2c-1.94-7.77-2.27-15.1-2.19-23.1v-3.36c0.04-6.07 0.27-12.1 0.7-18.1 0.66-9.44 0.57-18.9 0.49-28.3-0.03-3.4-0.05-6.81-0.06-10.2-0.01-0.78-0.02-1.55-0.03-2.35-0.01-1.84 0.04-3.67 0.09-5.5l1-1z" fill="#121314"/>
<path transform="translate(1171,963)" d="m0 0h1c1.83 16.3 2.25 32.4 2.12 48.9-0.01 2.35-0.01 4.71-0.02 7.07-0.02 5.68-0.06 11.4-0.1 17-3.98-4.67-4.12-8.94-4.13-14.9 0-1.17-0.01-2.33-0.01-3.53 0-1.25 0.01-2.5 0.01-3.79s0-2.58-0.01-3.91c0-2.73 0-5.45 0.01-8.18 0.01-3.49 0-6.97 0-10.5-0.01-3.34-0.01-6.67 0-10 0-1.25-0.01-2.5-0.01-3.79 0-1.16 0.01-2.33 0.01-3.53v-3.09c0.13-2.71 0.52-5.18 1.13-7.81z" fill="#FDFEFE"/>
<path transform="translate(1212,1188)" d="m0 0c0.76 0.8 1.53 1.61 2.31 2.44 2.48 2.73 2.48 2.73 5.69 3.56 0.99-0.33 1.98-0.66 3-1 1.51 3.29 3 6.58 4.5 9.88 0.43 0.93 0.86 1.87 1.3 2.83 0.41 0.9 0.81 1.8 1.23 2.72 0.38 0.83 0.76 1.65 1.14 2.51 0.83 2.06 0.83 2.06 0.83 4.06-1.24-0.08-2.47-0.16-3.75-0.25-1.04-0.07-1.04-0.07-2.11-0.14-3.06-0.87-4.17-2.11-6.14-4.61-1.25-2.56-2.19-5.19-3.12-7.88-0.38-1.04-0.38-1.04-0.77-2.1-1.43-3.99-2.79-8-4.11-12z" fill="#080A0C"/>
<path transform="translate(436,1130)" d="m0 0c1.5 1.31 1.5 1.31 3 3v3h2c0.18 1.1 0.18 1.1 0.37 2.23 0.16 0.98 0.33 1.95 0.51 2.96 0.16 0.96 0.32 1.92 0.49 2.92 0.61 2.81 1.49 5.25 2.63 7.89 1.19 3.19 1.19 3.19 2 6l-1 2h2c0.27 1.05 0.53 2.1 0.8 3.18 0.36 1.37 0.72 2.75 1.08 4.13 0.17 0.69 0.34 1.38 0.52 2.09 0.87 3.32 1.68 5.72 3.6 8.6-0.38 2.19-0.38 2.19-1 4l2 1c0.62 2.06 0.62 2.06 1 4h-5c-0.18-0.66-0.35-1.31-0.54-1.99-1.89-6.98-3.87-13.9-5.9-20.9-0.3-1.04-0.61-2.09-0.93-3.18-1.6-5.49-3.24-11-4.94-16.4-1.39-4.47-2.72-8.91-3.69-13.5l1-1z" fill="#FDFEFE"/>
<path transform="translate(434,1130)" d="m0 0c2.82 3 3.77 5.99 4.75 9.94 0.26 1.02 0.53 2.04 0.8 3.09 0.46 3.05 0.34 5.03-0.55 7.97-1.56 1.81-1.56 1.81-3 3-0.99-0.33-1.98-0.66-3-1-0.89-1.92-0.89-1.92-1.61-4.4-0.26-0.89-0.52-1.78-0.79-2.7-0.26-0.94-0.52-1.87-0.79-2.84-0.27-0.93-0.54-1.86-0.82-2.82-1.99-6.89-1.99-6.89-1.99-9.24 2.57-1.29 4.15-1.35 7-1z" fill="#07090B"/>
<path transform="translate(877,1192)" d="m0 0 4 1c-0.6 5.27-2.34 9.54-4.5 14.3-0.48 1.09-0.48 1.09-0.97 2.21-2.38 5.33-2.38 5.33-3.53 6.48-1.67 0.04-3.33 0.04-5 0 0.55-5.43 2.51-9.5 5-14.2 0.55-1.08 0.55-1.08 1.12-2.18 0.95-1.86 1.92-3.72 2.88-5.57l1-2z" fill="#111214"/>
<path transform="translate(318,1174)" d="m0 0c2.44 2.44 3.26 4.69 4.56 7.88 0.44 1.04 0.87 2.09 1.32 3.17 1.87 4.92 1.87 4.92 2.12 6.95l-2 3c-3.83-1.45-5.28-3.31-7-7-0.19-2.81-0.19-2.81 0-5l-4-1-1-7c1.21 0.03 1.21 0.03 2.44 0.06 2.49 0.24 2.49 0.24 3.56-1.06z" fill="#101112"/>
<path transform="translate(716,1129)" d="m0 0 2 2c-0.14 5.13-3.36 9.15-6.06 13.3-0.47 0.74-0.95 1.48-1.43 2.25-1.17 1.82-2.34 3.63-3.51 5.44l-4-1c1.7-4.69 4.06-8.92 6.5-13.2 0.4-0.73 0.81-1.46 1.22-2.22 0.39-0.69 0.78-1.39 1.19-2.11 0.35-0.63 0.7-1.26 1.07-1.92 1.02-1.5 1.02-1.5 3.02-2.5z" fill="#07090B"/>
<path transform="translate(915,1177)" d="m0 0 2 4c-3.5 0.8-6.71 1.12-10.3 1.1-0.98-0.01-1.95-0.01-2.96-0.01-1.01-0.01-2.01-0.02-3.05-0.03-1.03 0-2.06-0.01-3.11-0.01-2.53-0.01-5.05-0.03-7.58-0.05v-3c6.82-3.41 17.4-2.13 25-2z" fill="#141516"/>
<path transform="translate(596,1144)" d="m0 0c1 2.63 1.05 3.84 0.2 6.57-0.43 0.94-0.85 1.88-1.29 2.85-0.45 1.03-0.91 2.05-1.38 3.11-0.48 1.06-0.97 2.12-1.47 3.22-0.72 1.62-0.72 1.62-1.46 3.27-1.19 2.66-2.39 5.32-3.6 7.98l-4-1c0.59-3.52 1.52-6.43 3.07-9.64 0.6-1.27 0.6-1.27 1.22-2.55 0.42-0.87 0.84-1.73 1.27-2.62s0.85-1.77 1.29-2.68c1.04-2.17 2.09-4.34 3.15-6.51h2l1-2z" fill="#121314"/>
<path transform="translate(503,1170)" d="m0 0h3c0.12 0.97 0.25 1.94 0.38 2.94 0.3 1.51 0.3 1.51 0.62 3.06l2 1c-0.06 0.95-0.12 1.9-0.19 2.88 0.06 1.03 0.13 2.06 0.19 3.12l3 2v3c0.37 2.9 0.69 5.38 2 8 1.3 2.6 1.61 5.13 2 8-0.99 0.49-0.99 0.49-2 1v-2h-2c-1.29-4.05-2.57-8.11-3.85-12.2-0.43-1.38-0.87-2.76-1.3-4.14-0.64-1.98-1.26-3.97-1.88-5.96-0.38-1.19-0.76-2.38-1.14-3.61-0.83-3.12-0.83-3.12-0.83-7.12z" fill="#FDFEFE"/>
<path transform="translate(611 1179)" d="m0 0c0.9 0.99 0.9 0.99 1.81 2-6.21 0.92-12.2 1.12-18.5 1.06-0.92 0-1.83-0.01-2.78-0.01-2.24-0.01-4.48-0.03-6.72-0.05v-3c6.66-3.33 20-3.9 26.2 0z" fill="#141516"/>
<path transform="translate(1169,918)" d="m0 0 1 2h2c0.55 14.8 0.55 14.8-3 21l-2-1c-1.15-4-1.2-7.99-1.25-12.1-0.03-1.22-0.05-2.44-0.08-3.7 0.33-3.18 0.33-3.18 1.85-5.11 0.49-0.35 0.98-0.71 1.48-1.07z" fill="#121314"/>
<path transform="translate(570,1196)" d="m0 0c2 1 2 1 3.34 3.11 0.94 4.12-0.74 6.69-2.72 10.2-0.34 0.65-0.68 1.29-1.03 1.96-0.85 1.58-1.72 3.16-2.59 4.73l-5-1c0.62-4.55 2.47-8.28 4.56-12.3 0.5-0.97 0.5-0.97 1-1.96 0.81-1.58 1.62-3.15 2.44-4.73z" fill="#111213"/>
<path transform="translate(543,1129)" d="m0 0 2 1c-0.49 7.07-3.02 13.6-6 20l-2 1-2-2c0.23-6.41 1.95-12.3 5-18l3-2z" fill="#07090B"/>
<path transform="translate(1094,954)" d="m0 0h1v50h-1c-2.07-16.8-2.67-33.3 0-50z" fill="#07090B"/>
<path transform="translate(776,1129)" d="m0 0c5.54 0.36 10.3 0.78 15 4 1.38 2.69 1.38 2.69 2 5-2.9 0.85-4.45 1.23-7.28 0.04-0.73-0.47-1.47-0.93-2.22-1.42-3.19-2.01-5.75-3.05-9.5-3.62l4-2-2-2z" fill="#07090B"/>
<path transform="translate(896,1149)" d="m0 0h4c-0.55 5.01-2.24 8.97-4.56 13.4-0.33 0.64-0.66 1.28-1 1.94-0.81 1.56-1.62 3.12-2.44 4.68h-2c-1.23-3.45-1-5.51 0.43-8.77 0.66-1.35 1.33-2.7 2.01-4.04 0.34-0.7 0.67-1.39 1.02-2.1 0.84-1.7 1.69-3.4 2.54-5.09z" fill="#121314"/>
<path transform="translate(449,983)" d="m0 0c2.1-0.03 4.21-0.05 6.31-0.06 1.17-0.01 2.35-0.03 3.55-0.04 3.14 0.1 3.14 0.1 6.14 1.1v2c-0.97 0.45-1.94 0.91-2.94 1.38-3.13 1.28-3.13 1.28-4.06 3.62h-5v-3c-1.31-1.03-2.65-2.03-4-3v-2z" fill="#141516"/>
<path transform="translate(1097,1173)" d="m0 0c2.06 0.44 2.06 0.44 4 1 0.2 3.72 0.15 4.77-2 8-0.26 2.03-0.26 2.03-0.16 4.24 0.01 0.82 0.02 1.64 0.03 2.48 0.02 0.86 0.05 1.71 0.07 2.59 0.11 5.37 0.17 10.4-0.94 15.7h-1c-0.17-4.68-0.33-9.36-0.48-14-0.06-1.6-0.11-3.19-0.17-4.79-0.08-2.28-0.16-4.57-0.23-6.85-0.03-0.72-0.05-1.44-0.08-2.18-0.05-1.71-0.05-3.43-0.04-5.14l1-1z" fill="#FEFEFE"/>
<path transform="translate(889,1165)" d="m0 0 2 2c-0.02 2.6-0.02 2.6-0.38 5.62-0.11 1.01-0.22 2.01-0.33 3.04-0.1 0.77-0.19 1.55-0.29 2.34-1.98 0.66-3.96 1.32-6 2 0.57-5.54 2.63-10 5-15z" fill="#080A0C"/>
<path transform="translate(1146,995)" d="m0 0h2l1 3-1 2c-0.09 2.77-0.12 5.52-0.1 8.29 0 0.82 0.01 1.64 0.01 2.48 0 2.62 0.01 5.24 0.03 7.85 0 1.78 0.01 3.55 0.01 5.33 0.01 4.35 0.03 8.7 0.05 13l-2-1v-41z" fill="#FEFEFE"/>
<path transform="translate(1169,951)" d="m0 0h2v29h-2c-0.79-9.31-1.47-18.6-1-28l1-1z" fill="#131415"/>
<path transform="translate(284,1164)" d="m0 0c0.99 0.33 1.98 0.66 3 1-0.28 1.42-0.58 2.83-0.88 4.25-0.16 0.79-0.32 1.58-0.49 2.39-0.62 2.33-1.48 4.25-2.63 6.36v-4h-2l-1 3c0.5-4.97 1.55-8.64 4-13z" fill="#080A0B"/>
<path transform="translate(300,1130)" d="m0 0h2l2 7-4 3-3-3c0.99-2.31 1.98-4.62 3-7z" fill="#07090B"/>
<path transform="translate(196,919)" d="m0 0-1 3c-1.42 0.05-2.83 0.09-4.25 0.12-0.79 0.03-1.58 0.05-2.39 0.08-2.57-0.22-4.15-0.91-6.36-2.2 4.89-2.3 8.85-2.72 14-1z" fill="#FEFEFE"/>
<path transform="translate(819,607)" d="m0 0-1 4-7 2-1-4c3.13-1.86 5.37-2.2 9-2z" fill="#090B0D"/>
<path transform="translate(1037,584)" d="m0 0h1c0.76 7.53 1.14 14.5 0 22-2-2-2-2-2.23-5.55 0-1.44 0.02-2.89 0.04-4.33v-2.18c0.03-3.44 0.11-6.65 1.19-9.94z" fill="#07090B"/>
<path transform="translate(761,382)" d="m0 0c-3.44 3.17-6.15 3.46-10.8 3.69-1.17 0.06-2.34 0.13-3.55 0.2-0.89 0.03-1.78 0.07-2.7 0.11v-2c5.84-1.7 10.9-2.25 17-2z" fill="#0B0D0F"/>
<path transform="translate(831 378)" d="m0 0c1.17 0.11 2.34 0.22 3.55 0.34 0.89 0.09 1.78 0.19 2.7 0.28-0.33 1-0.66 1.99-1 3-5.28-0.66-10.6-1.31-16-2 4.4-2.19 5.99-2.1 10.8-1.62z" fill="#0A0B0D"/>
<path transform="translate(1168,1070)" d="m0 0h2v2h2v5c-0.99 0.49-0.99 0.49-2 1v-2l-5-1c1.38-2.5 1.38-2.5 3-5z" fill="#111213"/>
<path transform="translate(883,1178)" d="m0 0h6v3h-2l-1 4-4-1 1-6z" fill="#121314"/>
<path transform="translate(314,1182)" d="m0 0 4 1c0.12 1.05 0.25 2.1 0.38 3.19 0.53 3.27 1.26 5.82 2.62 8.81-3-1-3-1-4.17-3.21-0.5-1.35-0.5-1.35-1.02-2.73-0.34-0.89-0.69-1.79-1.04-2.71-0.77-2.35-0.77-2.35-0.77-4.35z" fill="#090B0C"/>
<path transform="translate(686,938)" d="M0 0 C1.23 2.46 1.17 4.19 1.19 6.94 C1.2 7.81 1.22 8.69 1.23 9.59 C1 12 1 12 -1 15 C-2.42 10.55 -2.79 5.92 -1 1.56 C-0.67 1.05 -0.34 0.53 0 0 Z " fill="#FEFEFE"/>
<path transform="translate(737,690)" d="m0 0c5.85 0.45 10.1 3.04 15 6-3 1-3 1-5.92-0.21-1.62-0.86-1.62-0.86-3.27-1.73-1.08-0.56-2.17-1.13-3.29-1.71-0.83-0.45-1.66-0.89-2.52-1.35v-1z" fill="#07090B"/>
</svg>
